<?xml version="1.0" encoding="UTF-8"?>
<svg width="54px" height="36px" viewBox="0 0 54 36" version="1.1" xmlns="http://www.w3.org/2000/svg" xmlns:xlink="http://www.w3.org/1999/xlink">
    <!-- Generator: Sketch 62 (91390) - https://sketch.com -->
    <title>BAN/BAN01</title>
    <desc>Created with Sketch.</desc>
    <g id="15.0-Iconos" stroke="none" stroke-width="1" fill="none" fill-rule="evenodd">
        <g id="Banking" transform="translate(-240.000000, -499.000000)" fill="#444444">
            <g id="Group" transform="translate(70.000000, 73.000000)">
                <g id="BAN008" transform="translate(136.000000, 388.000000)">
                    <g id="Shape">
                        <g id="icon" transform="translate(28.400000, 22.000000)">
                            <g id="BAN/BAN008" transform="translate(0.400000, 0.400000)">
                                <path d="M57.3333333,16 C58.0703125,16 58.6666667,16.5963541 58.6666667,17.3333333 L58.6666667,17.3333333 L58.6666667,49.3333333 C58.6666667,50.0703125 58.0703125,50.6666667 57.3333333,50.6666667 L57.3333333,50.6666667 L6.66666667,50.6666667 C5.92968747,50.6666667 5.33333333,50.0703125 5.33333333,49.3333333 L5.33333333,49.3333333 L5.33333333,17.3333333 C5.33333333,16.5963541 5.92968747,16 6.66666667,16 L6.66666667,16 Z M46.8014323,18.6666667 L17.1985677,18.6666667 C16.5900064,23.4724936 12.8066405,27.2565104 8,27.8652344 L8,27.8652344 L8,38.8014323 C12.8066405,39.4101563 16.5900064,43.1941731 17.1985677,48 L17.1985677,48 L46.8014323,48 C47.4099936,43.1941731 51.1933595,39.4101563 56,38.8014323 L56,38.8014323 L56,27.8652344 C51.1933595,27.2565104 47.4099936,23.4724936 46.8014323,18.6666667 L46.8014323,18.6666667 Z M8,41.4680989 L8,48 L14.5319011,48 C13.9664715,44.6601563 11.3398437,42.0335285 8,41.4680989 L8,41.4680989 Z M56,41.4680989 C52.6601563,42.0335285 50.0335285,44.6601563 49.4680989,48 L49.4680989,48 L56,48 Z M31.9661461,20.0677083 C32.7031253,20.0677083 33.2994795,20.6640624 33.2994795,21.4010416 L33.2994795,21.4010416 L33.2994795,23.0392248 C35.7667645,23.4648435 37.7120771,24.616536 37.809896,24.6770829 C38.4401043,25.0585933 38.6380211,25.8776037 38.2552085,26.505208 C37.8750003,27.1354163 37.0546877,27.3385413 36.4270835,26.9557288 C36.4010419,26.9414059 34.0494792,25.5390621 31.5781251,25.5390621 C29.7031251,25.5390621 27.8072917,26.3789059 27.8072917,27.9843747 C27.8072917,29.7929685 29.8177083,30.7291664 32.8828125,31.9518227 C35.8593752,33.1380205 39.2317709,34.4817707 39.2317709,37.8541664 C39.2317709,40.2203773 37.6189779,42.7104488 33.2994792,43.1603187 L33.2994792,43.1603187 L33.2994792,44.7929685 C33.2994792,45.5299477 32.7031251,46.1263019 31.9661459,46.1263019 C31.2291667,46.1263019 30.6328125,45.5299477 30.6328125,44.7929685 L30.6328125,44.7929685 L30.6328125,43.1834307 C27.308075,42.8729144 25.6199857,41.4305774 25.2600905,41.0829214 L25.2057293,41.0286456 C24.6979168,40.4960936 24.7161459,39.6523437 25.247396,39.1432291 C25.7786459,38.6328123 26.622396,38.6562499 27.1328125,39.1822915 C27.1770832,39.2265624 28.6041667,40.5872395 31.9010416,40.5872395 C33.6432291,40.5872395 36.5651043,40.2317709 36.5651045,37.8541667 C36.5651045,36.3984373 34.7161461,35.5533853 31.8958336,34.4283853 C28.8854171,33.2291667 25.1406253,31.7356771 25.1406253,27.9843749 C25.1406253,25.2819011 27.4059248,23.275716 30.6328128,22.9412435 L30.6328128,22.9412435 L30.6328128,21.4010416 C30.6328128,20.6640624 31.2291669,20.0677083 31.9661461,20.0677083 Z M56,18.6666667 L49.4680989,18.6666667 C50.0335285,22.0065104 52.6601563,24.6331381 56,25.1985677 L56,25.1985677 L56,18.6666667 Z M14.5319011,18.6666667 L8,18.6666667 L8,25.1985677 C11.3398437,24.6331381 13.9664715,22.0065104 14.5319011,18.6666667 L14.5319011,18.6666667 Z" id="Combined-Shape"></path>
                            </g>
                        </g>
                    </g>
                </g>
            </g>
        </g>
    </g>
</svg>