<?xml version="1.0" encoding="UTF-8"?>
<svg width="54px" height="43px" viewBox="0 0 54 43" version="1.1" xmlns="http://www.w3.org/2000/svg" xmlns:xlink="http://www.w3.org/1999/xlink">
    <!-- Generator: Sketch 62 (91390) - https://sketch.com -->
    <title>BAN/BAN01</title>
    <desc>Created with Sketch.</desc>
    <g id="15.0-Iconos" stroke="none" stroke-width="1" fill="none" fill-rule="evenodd">
        <g id="Channels" transform="translate(-407.000000, -421.000000)" fill="#444444">
            <g id="Group" transform="translate(71.000000, 0.000000)">
                <g id="CHAN012" transform="translate(302.000000, 388.000000)">
                    <g id="Shape">
                        <g id="icon" transform="translate(28.400000, 22.000000)">
                            <g id="CHAN/CHAN12" transform="translate(0.400000, 0.400000)">
                                <path d="M40.8385416,10.7617187 C41.2434896,10.5963541 41.7135416,10.6484376 42.0807291,10.8958333 C42.4466147,11.1445312 42.6666667,11.5572917 42.6666667,12 L42.6666667,12 L42.6666667,44 C42.6666667,44.4427083 42.4466147,44.8554688 42.0807291,45.1041667 C41.8567709,45.2552083 41.5963541,45.3333333 41.3333333,45.3333333 C41.1653645,45.3333333 40.9973957,45.3020832 40.8385416,45.2382811 L40.8385416,45.2382811 L29.3333333,40.6362304 L29.3333333,48 C29.3333333,50.9414061 26.9414061,53.3333333 24,53.3333333 C21.0585939,53.3333333 18.6666667,50.9414061 18.6666667,48 L18.6666667,48 L18.6666667,36.3694661 L14.4095053,34.6666667 L6.66666667,34.6666667 C5.92968747,34.6666667 5.33333333,34.0703125 5.33333333,33.3333333 L5.33333333,33.3333333 L5.33333333,22.6666667 C5.33333333,21.9296875 5.92968747,21.3333333 6.66666667,21.3333333 L6.66666667,21.3333333 L14.4095053,21.3333333 Z M21.3333333,37.4361979 L21.3333333,48 C21.3333333,49.470052 22.529948,50.6666667 24,50.6666667 C25.470052,50.6666667 26.6666667,49.470052 26.6666667,48 L26.6666667,48 L26.6666667,39.5694987 L21.3333333,37.4361979 Z M45.6419269,33.8138019 C46.1106771,33.2486979 46.9531251,33.1705728 47.5195312,33.6419269 L47.5195312,33.6419269 L55.5195312,40.2968749 C56.0859373,40.7669272 56.1627603,41.6080731 55.6914061,42.1744792 C55.4283853,42.4908856 55.0481771,42.654948 54.6653645,42.654948 C54.3658853,42.654948 54.0625,42.5533853 53.8138019,42.3463541 L53.8138019,42.3463541 L45.8138019,35.6914061 C45.2473957,35.2213539 45.1705728,34.380208 45.6419269,33.8138019 Z M40,13.9687499 L16,23.5694987 L16,32.4305013 L40,42.0312501 L40,13.9687499 Z M13.3333333,24 L8,24 L8,32 L13.3333333,32 L13.3333333,24 Z M57.3333333,26.6822917 C58.0703125,26.6822917 58.6666667,27.2786459 58.6666667,28.0156251 C58.6666667,28.7526043 58.0703125,29.3489584 57.3333333,29.3489584 L57.3333333,29.3489584 L46.6666667,29.3489584 C45.9296875,29.3489584 45.3333333,28.7526043 45.3333333,28.0156251 C45.3333333,27.2786459 45.9296875,26.6822917 46.6666667,26.6822917 L46.6666667,26.6822917 Z M53.8125,13.6315104 C54.3776043,13.1575523 55.2200523,13.2369792 55.6901043,13.8007813 C56.1627605,14.3658856 56.0859376,15.2070315 55.5208333,15.6783856 L55.5208333,15.6783856 L47.5208333,22.3567709 C47.2721355,22.5651043 46.9687499,22.6666667 46.6679688,22.6666667 C46.2851563,22.6666667 45.9062501,22.5039061 45.6432291,22.1875 C45.1705728,21.6223957 45.2473957,20.7812499 45.8125,20.3098957 L45.8125,20.3098957 Z" id="Combined-Shape"></path>
                            </g>
                        </g>
                    </g>
                </g>
            </g>
        </g>
    </g>
</svg>