<?xml version="1.0" encoding="UTF-8"?>
<svg width="44px" height="54px" viewBox="0 0 44 54" version="1.1" xmlns="http://www.w3.org/2000/svg" xmlns:xlink="http://www.w3.org/1999/xlink">
    <!-- Generator: Sketch 62 (91390) - https://sketch.com -->
    <title>BAN/BAN01</title>
    <desc>Created with Sketch.</desc>
    <g id="15.0-Iconos" stroke="none" stroke-width="1" fill="none" fill-rule="evenodd">
        <g id="Banking" transform="translate(-245.000000, -329.000000)" fill="#444444">
            <g id="Group" transform="translate(70.000000, 73.000000)">
                <g id="BAN004" transform="translate(136.000000, 228.752563)">
                    <g id="Shape">
                        <g id="icon" transform="translate(28.400000, 21.996683)">
                            <g id="BAN/BAN004" transform="translate(0.400000, 0.398673)">
                                <path d="M36.5794269,6.74471182 C40.3177083,5.64337754 44.1875,4.50559269 46.4205728,6.18102658 C47.4153645,6.92436177 47.9192707,8.0829759 47.9192707,9.62171921 C47.9192707,13.919168 44.1036784,16.3577898 41.4529621,17.5375582 C48.4296875,23.1268938 53.3046875,33.6343178 53.3046875,43.6328953 C53.3046875,53.4850189 46.1315104,58.4813786 31.9843749,58.4813786 C17.8385416,58.4813786 10.6666667,53.4850189 10.6666667,43.6328953 C10.6666667,33.6356197 15.5408528,23.1281957 22.5152995,17.5359308 C19.8645832,16.3558371 16.0520832,13.917378 16.0520832,9.62171921 C16.0520832,8.08167404 16.5559893,6.92305991 17.5507811,6.17972472 C19.7838541,4.50819615 23.6406248,5.64467941 27.3736979,6.7408065 C29.1341144,7.25762626 30.9804685,7.85255515 31.9765624,7.78746439 C33.1380208,7.77314442 34.8229165,7.26153185 36.5794269,6.74471182 Z M38.1988933,18.4792573 L25.7679037,18.4792573 C18.5512696,23.1356811 13.3333333,33.6375723 13.3333333,43.6328953 C13.3333333,51.830414 19.4335936,55.8152648 31.9843749,55.8152648 C44.5364581,55.8152648 50.6380211,51.830414 50.6380211,43.6328953 C50.6380211,33.6346431 45.4174805,23.132101 38.1988933,18.4792573 L38.1988933,18.4792573 Z M31.8971355,23.0707532 C32.6341147,23.0707532 33.2304688,23.6669837 33.2304688,24.4038101 L33.2304688,24.4038101 L33.2304688,26.8899481 C36.0763347,27.3402129 38.3417971,28.6732698 38.4544272,28.7414522 C39.0833333,29.1215816 39.2851563,29.9391206 38.904948,30.5691982 C38.5273437,31.1992761 37.7096355,31.4036606 37.0768229,31.0235312 C37.0494792,31.0079094 34.3294269,29.3975663 31.4570312,29.3975663 C29.2317709,29.3975663 26.9791667,30.4051698 26.9791667,32.3318535 C26.9791667,34.4811475 29.3125,35.5642563 32.8723957,36.9715164 C36.2057291,38.2902534 39.9856773,39.7847349 39.9856773,43.4779797 C39.9856773,46.829498 37.4786787,48.9425038 33.2304691,49.3232843 L33.2304691,49.3232843 L33.2304691,51.8095853 C33.2304691,52.5464117 32.6341149,53.1426422 31.8971357,53.1426422 C31.1601565,53.1426422 30.5638024,52.5464117 30.5638024,51.8095853 L30.5638024,51.8095853 L30.5638024,49.3302818 C26.3972984,48.9812331 24.4275717,47.0373003 24.3385419,46.9460107 C23.8281251,46.4174747 23.842448,45.5725976 24.372396,45.060985 C24.9023437,44.5506741 25.7460939,44.5675977 26.2578125,45.0948321 C26.3138021,45.1495085 27.9791667,46.7364189 31.8242187,46.7364189 C33.8763021,46.7364189 37.3190104,46.3133296 37.3190104,43.47798 C37.3190104,41.7283428 35.1705731,40.7467754 31.8906251,39.4514712 C28.3385416,38.0468145 24.3125,36.4546967 24.3125,32.3318538 C24.3125,29.3287328 26.8997397,27.1135348 30.5638021,26.7957295 L30.5638021,26.7957295 L30.5638021,24.4038101 C30.5638021,23.6669837 31.1601563,23.0707532 31.8971355,23.0707532 Z M26.6210936,9.29886936 C23.9583331,8.51778147 20.3138019,7.44378526 19.1484373,8.31469852 C19.0416667,8.39410925 18.7187499,8.63494464 18.7187499,9.62171921 C18.7187499,13.5935518 24.5169269,15.5124246 25.5169269,15.8131436 L25.5169269,15.8131436 L38.4570312,15.8131436 C39.470052,15.5150283 45.252604,13.6326061 45.252604,9.62171921 C45.252604,8.63624651 44.9296875,8.39541085 44.8229165,8.31469852 C43.6549477,7.44378552 40.0013019,8.51778147 37.3307291,9.30147309 C35.3020832,9.89900544 33.3880208,10.4639923 31.9765624,10.4535779 C30.6406248,10.4327489 28.6588541,9.89770358 26.6210936,9.29886936 Z" id="Combined-Shape"></path>
                            </g>
                        </g>
                    </g>
                </g>
            </g>
        </g>
    </g>
</svg>