<?xml version="1.0" encoding="UTF-8"?>
<svg width="38px" height="49px" viewBox="0 0 38 49" version="1.1" xmlns="http://www.w3.org/2000/svg" xmlns:xlink="http://www.w3.org/1999/xlink">
    <!-- Generator: Sketch 62 (91390) - https://sketch.com -->
    <title>BAN/BAN01</title>
    <desc>Created with Sketch.</desc>
    <g id="15.0-Iconos" stroke="none" stroke-width="1" fill="none" fill-rule="evenodd">
        <g id="Banking" transform="translate(-656.000000, -2560.000000)" fill="#444444">
            <g id="Group" transform="translate(70.000000, 73.000000)">
                <g id="BAN066" transform="translate(544.000000, 2457.090468)">
                    <g id="Shape">
                        <g id="icon" transform="translate(28.400000, 21.996683)">
                            <g id="BAN/BAN066" transform="translate(0.400000, 0.398673)">
                                <path d="M49.3333333,7.99834137 C50.0703125,7.99834137 50.6666667,8.59457186 50.6666667,9.33139826 L50.6666667,9.33139826 L50.6666667,54.6553327 C50.6666667,55.3921591 50.0703125,55.9883896 49.3333333,55.9883896 L49.3333333,55.9883896 L14.6666667,55.9883896 C13.9296875,55.9883896 13.3333333,55.3921591 13.3333333,54.6553327 L13.3333333,54.6553327 L13.3333333,9.33139826 C13.3333333,8.59457186 13.9296875,7.99834137 14.6666667,7.99834137 L14.6666667,7.99834137 Z M48,10.6644552 L16,10.6644552 L16,53.3222758 L48,53.3222758 L48,10.6644552 Z M31.9531251,30.6603086 C32.6901043,30.6603086 33.2864584,31.2565391 33.2864584,31.9933655 L33.2864584,31.9933655 L33.2864584,32.9871373 C34.8455405,33.3257716 36.0227867,34.0264727 36.0859376,34.0658525 C36.7161459,34.4459819 36.9140627,35.2609172 36.5364584,35.8909948 C36.1562501,36.5210724 35.3385416,36.7241554 34.7083333,36.3492331 C34.6953125,36.3388185 33.2213541,35.4718108 31.6953125,35.4718108 C30.6770832,35.4718108 29.6223957,35.9092201 29.6223957,36.6434428 C29.6223957,37.5547122 30.8515624,38.1092847 32.7291667,38.8513183 C34.7447917,39.6480282 37.25,40.6374063 37.25,43.1785457 C37.25,44.8792021 36.17806,46.6800983 33.2864584,47.109534 L33.2864584,47.109534 L33.2864584,48.0134807 C33.2864584,48.7503071 32.6901043,49.3465376 31.9531251,49.3465376 C31.2161459,49.3465376 30.6197917,48.7503071 30.6197917,48.0134807 L30.6197917,48.0134807 L30.6197917,47.1106732 C28.3647461,46.7943324 27.2600912,45.7367717 27.125,45.5973151 C26.6119792,45.0661753 26.6276043,44.2226001 27.1562501,43.7122894 C27.6901043,43.2019787 28.5338541,43.2149968 29.0416667,43.7435331 C29.0546875,43.7539475 29.9166667,44.5402428 31.9114584,44.5402428 L31.9114584,44.5402428 L31.9295248,44.5397546 C31.9378256,44.539592 31.9446616,44.5350356 31.9531251,44.5350356 C31.9596355,44.5350356 31.9650067,44.5386157 31.9715171,44.5387783 C32.974284,44.5319437 34.5833336,44.3410654 34.5833336,43.178546 C34.5833336,42.5042066 33.4088544,41.986085 31.7500003,41.3299709 C29.6145835,40.4863957 26.9557293,39.4371344 26.9557293,36.6434428 C26.9557293,34.7232679 28.4451499,33.2629587 30.6197917,32.8989393 L30.6197917,32.8989393 L30.6197917,31.9933655 C30.6197917,31.2565391 31.2161459,30.6603086 31.9531251,30.6603086 Z M41.3333333,23.9950241 C42.0703125,23.9950241 42.6666667,24.5912546 42.6666667,25.328081 C42.6666667,26.0649074 42.0703125,26.6611379 41.3333333,26.6611379 L41.3333333,26.6611379 L22.6666667,26.6611379 C21.9296875,26.6611379 21.3333333,26.0649074 21.3333333,25.328081 C21.3333333,24.5912546 21.9296875,23.9950241 22.6666667,23.9950241 L22.6666667,23.9950241 Z M41.3333333,15.9966827 C42.0703125,15.9966827 42.6666667,16.5929132 42.6666667,17.3297396 C42.6666667,18.066566 42.0703125,18.6627965 41.3333333,18.6627965 L41.3333333,18.6627965 L22.6666667,18.6627965 C21.9296875,18.6627965 21.3333333,18.066566 21.3333333,17.3297396 C21.3333333,16.5929132 21.9296875,15.9966827 22.6666667,15.9966827 L22.6666667,15.9966827 Z" id="Combined-Shape"></path>
                            </g>
                        </g>
                    </g>
                </g>
            </g>
        </g>
    </g>
</svg>