<?xml version="1.0" encoding="UTF-8"?>
<svg width="49px" height="49px" viewBox="0 0 49 49" version="1.1" xmlns="http://www.w3.org/2000/svg" xmlns:xlink="http://www.w3.org/1999/xlink">
    <!-- Generator: Sketch 62 (91390) - https://sketch.com -->
    <title>BAN/BAN01</title>
    <desc>Created with Sketch.</desc>
    <g id="15.0-Iconos" stroke="none" stroke-width="1" fill="none" fill-rule="evenodd">
        <g id="Banking" transform="translate(-786.000000, -1446.000000)" fill="#444444">
            <g id="Group" transform="translate(70.000000, 73.000000)">
                <g id="BAN044" transform="translate(680.000000, 1342.921516)">
                    <g id="Shape">
                        <g id="icon" transform="translate(28.400000, 21.996683)">
                            <g id="BAN/BAN044" transform="translate(0.400000, 0.398673)">
                                <path d="M53.6041667,8.38888541 C54.125,7.86816006 54.9687501,7.86816006 55.4895835,8.38888515 C56.0104168,8.90961023 56.0104168,9.75318543 55.4895835,10.2739108 L55.4895835,10.2739108 L48.4404299,17.3216029 L50.2552085,33.6531772 C50.2994792,34.0554376 50.1588544,34.456396 49.872396,34.742795 L49.872396,34.742795 L29.1328125,55.4793802 C28.872396,55.739743 28.5312501,55.8699242 28.1901043,55.8699242 C27.8489584,55.8699242 27.5078125,55.7397427 27.247396,55.4793802 L27.247396,55.4793802 L8.39062507,36.6278206 C8.14062507,36.3778725 8,36.0394011 8,35.6853078 C8,35.3312146 8.14062507,34.9927432 8.39062507,34.742795 L8.39062507,34.742795 L29.1328125,14.004908 C29.4192709,13.7172071 29.8229168,13.5740078 30.2239584,13.6221748 L30.2239584,13.6221748 L46.5551757,15.4364146 Z M30.5651043,16.342965 L11.2187501,35.6853081 L28.1901043,52.6518417 L47.5338541,33.3108005 L46.0247395,19.7367924 L41.6510416,24.1095835 C41.3906251,24.3699463 41.0494792,24.5001276 40.7083333,24.5001276 C40.3671875,24.5001276 40.0260416,24.3699461 39.7656251,24.1095835 C39.2447917,23.5888582 39.2447917,22.7452832 39.7656251,22.2245579 L39.7656251,22.2245579 L44.1402995,17.8507905 L30.5651043,16.342965 Z M28.4843752,36.7137407 C30.0520835,35.1463575 32.6067709,35.1450556 34.1796877,36.7124391 C35.747396,38.2837279 35.747396,40.8378857 34.1796877,42.4078727 L34.1796877,42.4078727 L32.9088544,43.6771407 C32.1250003,44.4621339 31.0937504,44.8539798 30.0625003,44.8539798 C29.0312501,44.8539798 28.0000003,44.4621339 27.2135419,43.6784423 L27.2135419,43.6784423 C25.6432293,42.1058516 25.6432293,39.5529956 27.2135419,37.9843105 L27.2135419,37.9843105 Z M32.2942709,38.6000682 C31.7630208,38.0689282 30.9010419,38.0702301 30.3697917,38.5987663 L30.3697917,38.5987663 L29.0989584,39.8693362 C28.5703125,40.3991743 28.5703125,41.2622764 29.0989584,41.7921145 C29.6302085,42.3206508 30.4921875,42.3206508 31.0234376,41.7921145 L31.0234376,41.7921145 L32.2942709,40.5228465 C32.8229168,39.9930087 32.8229168,39.1299063 32.2942709,38.6000682 Z M38.9479168,31.8814095 C39.684896,31.8814095 40.2812501,32.4776399 40.2812501,33.2144663 C40.2812501,33.9512927 39.684896,34.5475232 38.9479168,34.5475232 L38.9479168,34.5475232 L21.1744792,34.5475232 C20.4375,34.5475232 19.8411459,33.9512927 19.8411459,33.2144663 C19.8411459,32.4776399 20.4375,31.8814095 21.1744792,31.8814095 L21.1744792,31.8814095 Z M27.2135416,22.7517923 C28.7343749,21.233878 31.3932291,21.233878 32.9088541,22.7517923 C33.6666667,23.5094477 34.0833333,24.5209566 34.0833333,25.5975563 C34.0833333,26.6754578 33.6666667,27.6869667 32.9088541,28.4446221 L32.9088541,28.4446221 L31.6380208,29.7138901 C30.8802083,30.4715456 29.8697917,30.8894277 28.7916667,30.8894277 C27.7135416,30.8894277 26.7031251,30.4715456 25.9453125,29.7138901 C25.1875,28.9562347 24.7708333,27.9447258 24.7708333,26.8681261 C24.7708333,25.7902246 25.1875,24.7787157 25.9453125,24.0210603 L25.9453125,24.0210603 Z M30.0625,24.2410669 C29.6953125,24.2410669 29.3541667,24.3816628 29.0989584,24.63812 L29.0989584,24.63812 L27.8307293,25.9060862 C27.2994792,26.435924 27.2994792,27.2990264 27.8307293,27.8288645 C28.3619792,28.3574008 29.2213541,28.3574008 29.7526043,27.8288645 L29.7526043,27.8288645 L31.0234376,26.5595965 C31.5546877,26.0297584 31.5546877,25.1666563 31.0234376,24.6368182 C30.7682291,24.3816628 30.4270835,24.2410669 30.0625,24.2410669 Z" id="Combined-Shape"></path>
                            </g>
                        </g>
                    </g>
                </g>
            </g>
        </g>
    </g>
</svg>