<?xml version="1.0" encoding="UTF-8"?>
<svg width="44px" height="43px" viewBox="0 0 44 43" version="1.1" xmlns="http://www.w3.org/2000/svg" xmlns:xlink="http://www.w3.org/1999/xlink">
    <!-- Generator: Sketch 62 (91390) - https://sketch.com -->
    <title>BAN/BAN01</title>
    <desc>Created with Sketch.</desc>
    <g id="15.0-Iconos" stroke="none" stroke-width="1" fill="none" fill-rule="evenodd">
        <g id="Banking" transform="translate(-381.000000, -1131.000000)" fill="#444444">
            <g id="Group" transform="translate(70.000000, 73.000000)">
                <g id="BAN028" transform="translate(272.000000, 1025.000000)">
                    <g id="Shape">
                        <g id="icon" transform="translate(28.400000, 22.000000)">
                            <g id="BAN/BAN028" transform="translate(0.400000, 0.400000)">
                                <path d="M52,50.6666666 C52.7369792,50.6666666 53.3333333,51.2630207 53.3333333,51.9999999 C53.3333333,52.7369791 52.7369792,53.3333333 52,53.3333333 L52,53.3333333 L12,53.3333333 C11.2630208,53.3333333 10.6666667,52.7369791 10.6666667,51.9999999 C10.6666667,51.2630207 11.2630208,50.6666666 12,50.6666666 L12,50.6666666 Z M12,34.6666666 C12.7369792,34.6666666 13.3333333,35.2630207 13.3333333,35.9999999 L13.3333333,35.9999999 L13.3333333,46.6666666 C13.3333333,47.4036458 12.7369792,47.9999999 12,47.9999999 C11.2630208,47.9999999 10.6666667,47.4036458 10.6666667,46.6666666 L10.6666667,46.6666666 L10.6666667,35.9999999 C10.6666667,35.2630207 11.2630208,34.6666666 12,34.6666666 Z M25.3333333,34.6666666 C26.0703125,34.6666666 26.6666667,35.2630207 26.6666667,35.9999999 L26.6666667,35.9999999 L26.6666667,46.6666666 C26.6666667,47.4036458 26.0703125,47.9999999 25.3333333,47.9999999 C24.5963541,47.9999999 24,47.4036458 24,46.6666666 L24,46.6666666 L24,35.9999999 C24,35.2630207 24.5963541,34.6666666 25.3333333,34.6666666 Z M38.6666667,29.3333333 C39.4036459,29.3333333 40,29.9296874 40,30.6666666 L40,30.6666666 L40,46.6666666 C40,47.4036458 39.4036459,47.9999999 38.6666667,47.9999999 C37.9296875,47.9999999 37.3333333,47.4036458 37.3333333,46.6666666 L37.3333333,46.6666666 L37.3333333,30.6666666 C37.3333333,29.9296874 37.9296875,29.3333333 38.6666667,29.3333333 Z M52,21.3333333 C52.7369792,21.3333333 53.3333333,21.9296874 53.3333333,22.6666666 L53.3333333,22.6666666 L53.3333333,46.6666666 C53.3333333,47.4036458 52.7369792,47.9999999 52,47.9999999 C51.2630208,47.9999999 50.6666667,47.4036458 50.6666667,46.6666666 L50.6666667,46.6666666 L50.6666667,22.6666666 C50.6666667,21.9296874 51.2630208,21.3333333 52,21.3333333 Z M51.0572917,11.0572917 C51.5781248,10.5364583 52.4218749,10.5364583 52.9427083,11.0572917 C53.4635416,11.578125 53.4635416,12.4218749 52.9427083,12.9427082 L52.9427083,12.9427082 L42.2760416,23.6093749 C41.8255208,24.0598957 41.1223957,24.1302082 40.5937499,23.7760415 L40.5937499,23.7760415 L33.502604,19.0494791 L23.6093749,28.9427082 C23.3489584,29.203125 23.0078125,29.3333333 22.6666667,29.3333333 C22.3255208,29.3333333 21.9843749,29.203125 21.7239584,28.9427082 L21.7239584,28.9427082 L17.3333333,24.5520831 L12.9427083,28.9427082 C12.4218752,29.4635415 11.5781251,29.4635413 11.0572917,28.9427082 C10.5364584,28.4218751 10.5364584,27.578125 11.0572917,27.0572917 L11.0572917,27.0572917 L16.3906251,21.7239583 C16.9114581,21.203125 17.7552083,21.203125 18.2760416,21.7239583 L18.2760416,21.7239583 L22.6666667,26.1145834 L32.3906251,16.390625 C32.842448,15.9401042 33.5468752,15.8697917 34.0729168,16.2239583 L34.0729168,16.2239583 L41.1640627,20.9505207 Z" id="Combined-Shape"></path>
                            </g>
                        </g>
                    </g>
                </g>
            </g>
        </g>
    </g>
</svg>