<?xml version="1.0" encoding="UTF-8"?>
<svg width="62px" height="62px" viewBox="0 0 62 62" version="1.1" xmlns="http://www.w3.org/2000/svg" xmlns:xlink="http://www.w3.org/1999/xlink">
    <!-- Generator: Sketch 62 (91390) - https://sketch.com -->
    <title>BAN/BAN01</title>
    <desc>Created with Sketch.</desc>
    <defs>
        <filter x="-10.0%" y="-9.4%" width="120.0%" height="118.8%" filterUnits="objectBoundingBox" id="filter-1">
            <feOffset dx="0" dy="2" in="SourceAlpha" result="shadowOffsetOuter1"></feOffset>
            <feGaussianBlur stdDeviation="2" in="shadowOffsetOuter1" result="shadowBlurOuter1"></feGaussianBlur>
            <feColorMatrix values="0 0 0 0 0   0 0 0 0 0   0 0 0 0 0  0 0 0 0.5 0" type="matrix" in="shadowBlurOuter1" result="shadowMatrixOuter1"></feColorMatrix>
            <feMerge>
                <feMergeNode in="shadowMatrixOuter1"></feMergeNode>
                <feMergeNode in="SourceGraphic"></feMergeNode>
            </feMerge>
        </filter>
    </defs>
    <g id="15.0-Iconos" stroke="none" stroke-width="1" fill="none" fill-rule="evenodd">
        <g id="Services" transform="translate(-122.000000, -2099.000000)" fill="#444444">
            <g id="Group" transform="translate(92.000000, 94.000000)">
                <g id="SERV071" filter="url(#filter-1)" transform="translate(0.000000, 1979.794734)">
                    <g id="Shape">
                        <g id="icon" transform="translate(28.400000, 21.998341)">
                            <g id="SERV/SERV071" transform="translate(0.400000, 0.399337)">
                                <path d="M14.6666667,42.6622434 C15.4036459,42.6622434 16,43.2585357 16,43.9954385 L16,43.9954385 L16,57.3273896 C16,58.0642924 15.4036459,58.6605847 14.6666667,58.6605847 C13.9296875,58.6605847 13.3333333,58.0642924 13.3333333,57.3273896 L13.3333333,57.3273896 L13.3333333,43.9954385 C13.3333333,43.2585357 13.9296875,42.6622434 14.6666667,42.6622434 Z M18.0859373,20.966576 C22.3320312,20.966576 23.9257811,23.489752 23.9986979,25.6509864 L23.9986979,25.6509864 L24,35.9962679 C24,37.735671 22.8854165,39.2172881 21.3333333,39.7667103 L21.3333333,39.7667103 L21.3333333,57.3273896 C21.3333333,58.0642924 20.7369792,58.6605847 20,58.6605847 C19.2630208,58.6605847 18.6666667,58.0642924 18.6666667,57.3273896 L18.6666667,57.3273896 L18.6666667,38.6626581 C18.6666667,37.9257553 19.2630208,37.329463 20,37.329463 L20.1282991,37.3233404 C20.8039216,37.2585361 21.3333333,36.6873726 21.3333333,35.9962679 L21.3333333,35.9962679 L21.3333333,25.6952527 C21.2747395,23.9818885 19.4348957,23.6590054 18.2382813,23.6355702 C17.4596355,23.8204468 15.5611979,24.2526937 14.7291667,24.2579015 C13.8085939,24.1641613 11.8216147,23.8230508 11.0039061,23.6355702 C9.6315104,23.6590054 8.0559896,24.0574014 7.99869787,25.7395188 L7.99869787,25.7395188 L8,35.9962679 C8,36.7305667 8.59765627,37.329463 9.33333333,37.329463 C10.0703125,37.329463 10.6666667,37.9257553 10.6666667,38.6626581 L10.6666667,38.6626581 L10.6666667,57.3273896 C10.6666667,58.0642924 10.0703125,58.6605847 9.33333333,58.6605847 C8.59635413,58.6605847 8,58.0642924 8,57.3273896 L8,57.3273896 L8,39.7667103 C6.4479168,39.2172881 5.33333333,37.735671 5.33333333,35.9962679 L5.33333333,35.9962679 L5.33333333,25.6952527 C5.4114584,23.3855962 6.97916667,20.966576 11.1497395,20.966576 C11.2513021,20.966576 11.3528645,20.9769915 11.4505208,21.0004267 C12.6809896,21.2868554 14.2656248,21.5915112 14.6992187,21.5915112 L14.6992187,21.5915112 L14.7083333,21.5915112 C15.1171875,21.5889075 16.6158853,21.2842516 17.7708331,21.0030309 C17.8749997,20.9795958 17.9804685,20.966576 18.0859373,20.966576 Z M52.7526043,20.966576 C56.9986979,20.966576 58.592448,23.489752 58.6653645,25.6509864 L58.6653645,25.6509864 L58.6666667,35.9962679 C58.6666667,37.6243543 57.6855469,39.0228096 56.2862957,39.6462801 L56.2862957,39.6462801 L58.6263021,49.0053359 C58.7265627,49.4037319 58.6367189,49.8255634 58.3841147,50.1484464 C58.1315104,50.4713295 57.7434896,50.6614141 57.3333333,50.6614141 L57.3333333,50.6614141 L56,50.6614141 L56,57.3273896 C56,58.0642924 55.4036459,58.6605847 54.6666667,58.6605847 C53.9296875,58.6605847 53.3333333,58.0642924 53.3333333,57.3273896 L53.3333333,57.3273896 L53.3333333,50.6614141 L50.6666667,50.6614141 L50.6666667,57.3273896 C50.6666667,58.0642924 50.0703125,58.6605847 49.3333333,58.6605847 C48.5963541,58.6605847 48,58.0642924 48,57.3273896 L48,57.3273896 L48,50.6614141 L45.3333333,50.6614141 L45.3333333,57.3273896 C45.3333333,58.0642924 44.7369792,58.6605847 44,58.6605847 C43.2630208,58.6605847 42.6666667,58.0642924 42.6666667,57.3273896 L42.6666667,57.3273896 L42.6666667,50.6614141 L41.3333333,50.6614141 C40.9231771,50.6614141 40.5351563,50.4713295 40.2825523,50.1484464 C40.0299483,49.8255634 39.9401043,49.4037322 40.0403648,49.0053359 L40.0403648,49.0053359 L42.3803712,39.6462801 C40.9811197,39.0228096 40,37.6243543 40,35.9962679 L40,35.9962679 L40,25.6952524 C40.0781248,23.3855962 41.6458333,20.966576 45.8164061,20.966576 C45.9179688,20.966576 46.0195312,20.9769915 46.1171875,21.0004267 C47.3476563,21.2868554 48.9322915,21.5915112 49.3658853,21.5915112 L49.3658853,21.5915112 C49.7838541,21.5889075 51.282552,21.2842516 52.4375,21.0030307 C52.5416667,20.9795955 52.6471355,20.966576 52.7526043,20.966576 Z M34.279948,35.3426898 C37.4270832,35.3426898 38.6093749,37.25395 38.665364,38.8918013 L38.665364,38.8918013 L38.6666661,45.3885234 C38.6666661,47.1227186 37.5520827,48.6043359 35.9999995,49.1511541 L35.9999995,49.1511541 L35.9999995,57.3273896 C35.9999995,58.0642924 35.4036453,58.6605847 34.6666661,58.6605847 C33.9296869,58.6605847 33.3333331,58.0642924 33.3333331,57.3273896 L33.3333331,57.3273896 L33.3333331,48.0471014 C33.3333331,47.3101986 33.9296869,46.7139063 34.6666661,46.7139063 C35.4023432,46.7139063 35.9999995,46.120218 35.9999995,45.3885229 L35.9999995,45.3885229 L35.9999995,38.9386708 C35.9752597,38.2278072 35.1627597,38.0325149 34.4283848,38.0116837 C33.8020829,38.1601057 32.6197912,38.4204955 32.0494787,38.4257032 L32.0494787,38.4257032 L32.0312496,38.4257032 C31.4231768,38.4257032 30.1679685,38.1601059 29.5130205,38.0116837 C28.0312496,38.0533461 28.0078123,38.7511905 27.9986976,38.9855412 L27.9986976,38.9855412 L27.9999997,45.3885232 C27.9999997,46.1202182 28.597656,46.7139065 29.3333331,46.7139065 C30.0703123,46.7139065 30.6666664,47.3101988 30.6666664,48.0471016 L30.6666664,48.0471016 L30.6666664,57.3273896 C30.6666664,58.0642924 30.0703123,58.6605847 29.3333331,58.6605847 C28.5963539,58.6605847 27.9999997,58.0642924 27.9999997,57.3273896 L27.9999997,57.3273896 L27.9999997,49.1511538 C26.4479165,48.6043356 25.3333331,47.1227183 25.3333331,45.3885232 L25.3333331,45.3885232 L25.3333331,38.9386711 C25.3906248,37.25395 26.5559893,35.3426898 29.6549477,35.3426898 C29.7565104,35.3426898 29.8580728,35.3531052 29.9557291,35.3765404 C30.8229165,35.5770404 31.7903645,35.7567093 32.0273437,35.7593133 C32.2460939,35.7541055 33.154948,35.5770407 33.967448,35.3791444 C34.0690104,35.3557092 34.1744792,35.3426898 34.279948,35.3426898 Z M52.904948,23.6355702 C52.1263021,23.8204468 50.2278645,24.2526937 49.3958333,24.2579015 C48.4869789,24.1641613 46.4882811,23.8230508 45.6705728,23.6355702 C44.2981771,23.6590054 42.7226563,24.0574014 42.6653645,25.7395188 L42.6653645,25.7395188 L42.6666667,35.9962679 C42.6666667,36.7305667 43.2643229,37.329463 44,37.329463 C44.0572917,37.329463 44.1059571,37.3550137 44.1612957,37.3620116 C44.2158205,37.3683587 44.2682293,37.3555019 44.3229168,37.3685213 C44.3582357,37.3774721 44.3836264,37.402209 44.4174805,37.4136012 C44.5055339,37.4430579 44.5828451,37.4839064 44.6616211,37.5301257 C44.7337237,37.5722762 44.8022459,37.6126368 44.8640949,37.6665048 C44.9298501,37.7234651 44.9820963,37.788237 45.0356445,37.8570776 C45.087728,37.9239651 45.136556,37.9882488 45.1749675,38.0637618 C45.2128907,38.1379728 45.2360027,38.2156015 45.2596029,38.297136 C45.2851563,38.3843667 45.3056643,38.4688305 45.3128256,38.5609433 C45.3155925,38.5962588 45.3333333,38.626529 45.3333333,38.6626581 C45.3333333,38.7205948 45.3076171,38.7697433 45.3004557,38.8257273 C45.2937827,38.8795953 45.3064779,38.9316734 45.2929688,38.9855414 L45.2929688,38.9855414 L43.0416667,47.9950238 L55.625,47.9950238 L53.3736979,38.9855412 C53.3601888,38.9316731 53.372884,38.8795951 53.3662109,38.8257271 C53.3590496,38.7697433 53.3333333,38.7205948 53.3333333,38.6626581 C53.3333333,38.626529 53.3510741,38.5962588 53.3538411,38.5609433 C53.3610027,38.4688305 53.3815104,38.3843664 53.4070637,38.297136 C53.430664,38.2156015 53.453776,38.1379728 53.4916992,38.0637618 C53.5301107,37.9882488 53.5789389,37.9239651 53.6310221,37.8570776 C53.6845704,37.788237 53.7368165,37.7234651 53.8025717,37.6665048 C53.8644205,37.6126366 53.9329427,37.5722762 54.0050456,37.5301257 C54.0838216,37.4839064 54.1611328,37.4430579 54.2491861,37.4136012 C54.2830403,37.4022093 54.3084309,37.3774721 54.3437499,37.3685213 C54.3976237,37.3558275 54.4495443,37.3685213 54.5032552,37.3623372 C54.5592448,37.3551766 54.608724,37.329463 54.6666667,37.329463 C55.4023437,37.329463 56,36.7305667 56,35.9962679 L56,35.9962679 L56,25.6952527 C55.9414061,23.9818885 54.1015624,23.6590054 52.904948,23.6355702 Z M31.9973957,21.2399853 C33.6341144,21.2399853 35.2786456,21.9794921 36.2877603,23.1720767 C37.1328123,24.169369 37.4830728,25.40622 37.2747395,26.6560904 L37.2747395,26.6560904 L36.7864581,30.4707992 C36.4049477,32.9158582 34.4830728,34.532878 31.9973957,34.532878 C29.5143229,34.532878 27.595052,32.9158582 27.2187499,30.5072535 L27.2187499,30.5072535 L26.7187499,26.6066163 C26.5169269,25.40622 26.8671875,24.166765 27.7122395,23.1694727 C28.720052,21.9794921 30.3619792,21.2399853 31.9973957,21.2399853 Z M31.9973957,23.9063755 C31.1380208,23.9063755 30.2552083,24.2943561 29.7473957,24.8932524 C29.407552,25.2916487 29.2773437,25.7395188 29.3567707,26.218636 L29.3567707,26.218636 L29.8593749,30.1322927 C30.0247395,31.1868708 30.845052,31.8664878 31.9973957,31.8664878 C33.1523437,31.8664878 33.9752605,31.1868708 34.1458333,30.095838 L34.1458333,30.095838 L34.6367187,26.2681098 C34.7239581,25.7395188 34.5924477,25.2942527 34.252604,24.8958564 C33.7447915,24.2943561 32.8593749,23.9063755 31.9973957,23.9063755 Z M49.3294269,5.33278069 C51.0768229,5.33278069 52.8307291,6.12176129 53.907552,7.39506687 C54.8046875,8.452249 55.1770832,9.76461293 54.9557291,11.0899963 L54.9557291,11.0899963 L54.4244789,15.2432116 C54.0182291,17.8392965 51.9739581,19.5604722 49.3294269,19.5604722 C46.690104,19.5604722 44.6484373,17.8392963 44.2473957,15.2796659 L44.2473957,15.2796659 L43.7031248,11.0405222 C43.4895832,9.76200894 43.8619789,8.449645 44.7591144,7.38985915 C45.8346352,6.12176129 47.5859373,5.33278069 49.3294269,5.33278069 Z M14.6627605,5.33278043 C16.4101563,5.33278043 18.1640624,6.12176129 19.2408853,7.39506687 C20.1380208,8.45224873 20.5104165,9.76461267 20.2890624,11.0899963 L20.2890624,11.0899963 L19.7578123,15.2432116 C19.3515624,17.8392965 17.3072915,19.5604722 14.6627603,19.5604722 C12.0234373,19.5604722 9.98177067,17.8392963 9.58072907,15.2796659 L9.58072907,15.2796659 L9.0364584,11.040522 C8.8229168,9.76200894 9.19531253,8.449645 10.092448,7.38985888 C11.1679688,6.12176129 12.9192709,5.33278043 14.6627605,5.33278043 Z M49.3294272,7.99917064 C48.3632813,7.99917064 47.3671877,8.43662555 46.7942709,9.11363856 C46.4010416,9.5771321 46.2486979,10.0953077 46.3411461,10.6525411 L46.3411461,10.6525411 L46.8880211,14.9047045 C47.0781251,16.1181206 48.0156251,16.8940817 49.3294272,16.8940817 C50.6484379,16.8940817 51.5885419,16.1181206 51.7838544,14.8682502 L51.7838544,14.8682502 L52.3177085,10.7020155 C52.4179691,10.0979114 52.2656253,9.57973583 51.8736981,9.11624229 C51.2981771,8.43922928 50.2994792,7.99917064 49.3294272,7.99917064 Z M14.6627605,7.99917064 C13.6966147,7.99917064 12.7005211,8.43662555 12.1276043,9.11363856 C11.7343749,9.5771321 11.5820312,10.0953077 11.6744792,10.6525414 L11.6744792,10.6525414 L12.2213541,14.9047045 C12.4114581,16.1181206 13.3489581,16.8940817 14.6627603,16.8940817 C15.9817709,16.8940817 16.9218749,16.1181206 17.1171875,14.8682502 L17.1171875,14.8682502 L17.6510416,10.7020155 C17.7513021,10.0979114 17.5989584,9.5797361 17.2070315,9.11624229 C16.6315104,8.43922928 15.6328125,7.99917064 14.6627605,7.99917064 Z" id="Combined-Shape"></path>
                            </g>
                        </g>
                    </g>
                </g>
            </g>
        </g>
    </g>
</svg>