<?xml version="1.0" encoding="UTF-8"?>
<svg width="49px" height="45px" viewBox="0 0 49 45" version="1.1" xmlns="http://www.w3.org/2000/svg" xmlns:xlink="http://www.w3.org/1999/xlink">
    <!-- Generator: Sketch 62 (91390) - https://sketch.com -->
    <title>BAN/BAN01</title>
    <desc>Created with Sketch.</desc>
    <g id="15.0-Iconos" stroke="none" stroke-width="1" fill="none" fill-rule="evenodd">
        <g id="Channels" transform="translate(-108.000000, -641.000000)" fill="#444444">
            <g id="Group" transform="translate(40.000000, 72.000000)">
                <g id="CHAN016" transform="translate(32.000000, 538.000000)">
                    <g id="Shape">
                        <g id="icon" transform="translate(28.400000, 22.000000)">
                            <g id="CHAN/CHAN16" transform="translate(0.400000, 0.400000)">
                                <path d="M54.6666667,16 L46.5371093,16 C45.8977864,12.2242837 42.6267904,9.33333333 38.6718749,9.33333333 C35.8888347,9.33333333 33.4388021,10.7651368 32.0052083,12.9272461 C30.5716147,10.7651368 28.1215821,9.33333333 25.3385416,9.33333333 C21.3836264,9.33333333 18.1126301,12.2242837 17.4733072,16 L9.33333333,16 C8.59635413,16 8,16.5963541 8,17.3333333 L8,28 C8,28.7369792 8.59635413,29.3333333 9.33333333,29.3333333 L10.6666667,29.3333333 L10.6666667,42.7317709 C10.6666667,48.5729168 15.4192709,53.3255208 21.2604165,53.3255208 L27.9612629,53.3255208 C27.9749349,53.3260091 27.9861653,53.3333333 28,53.3333333 L36,53.3333333 C36.0138347,53.3333333 36.0250651,53.3260091 36.0387371,53.3255208 L42.7395835,53.3255208 C48.5807291,53.3255208 53.3333333,48.5729168 53.3333333,42.7317709 L53.3333333,29.3333333 L54.6666667,29.3333333 C55.4036459,29.3333333 56,28.7369792 56,28 L56,17.3333333 C56,16.5963541 55.4036459,16 54.6666667,16 Z M38.6718749,12 C41.1490885,12 43.2195637,13.7060547 43.8159179,16 L36,16 L33.527832,16 C34.1241861,13.7060547 36.1946613,12 38.6718749,12 Z M29.3333333,50.6588541 L29.3333333,28 L29.3333333,18.6666667 L34.6666667,18.6666667 L34.6666667,28 L34.6666667,50.6588541 L29.3333333,50.6588541 Z M25.3385416,12 C27.8157552,12 29.8862304,13.7060547 30.4825845,16 L28,16 L20.1944987,16 C20.7908528,13.7060547 22.861328,12 25.3385416,12 Z M10.6666667,18.6666667 L26.6666667,18.6666667 L26.6666667,26.6666667 L12.0387371,26.6666667 C12.0250651,26.6661784 12.0138347,26.6588541 12,26.6588541 C11.9861653,26.6588541 11.9749349,26.6661784 11.9612629,26.6666667 L10.6666667,26.6666667 L10.6666667,18.6666667 Z M13.3333333,42.7317709 L13.3333333,29.3333333 L26.6666667,29.3333333 L26.6666667,50.6588541 L21.2604165,50.6588541 C16.8906251,50.6588541 13.3333333,47.1028645 13.3333333,42.7317709 Z M50.6666667,42.7317709 C50.6666667,47.1028648 47.1093749,50.6588541 42.7395835,50.6588541 L37.3333333,50.6588541 L37.3333333,29.3333333 L50.6666667,29.3333333 L50.6666667,42.7317709 Z M53.3333333,26.6666667 L52.0387371,26.6666667 C52.0250651,26.6661784 52.0138347,26.6588541 52,26.6588541 C51.9861653,26.6588541 51.9749349,26.6661784 51.9612629,26.6666667 L37.3333333,26.6666667 L37.3333333,18.6666667 L53.3333333,18.6666667 L53.3333333,26.6666667 Z" id="Shape"></path>
                            </g>
                        </g>
                    </g>
                </g>
            </g>
        </g>
    </g>
</svg>