<?xml version="1.0" encoding="UTF-8"?>
<svg width="56px" height="45px" viewBox="0 0 56 45" version="1.1" xmlns="http://www.w3.org/2000/svg" xmlns:xlink="http://www.w3.org/1999/xlink">
    <!-- Generator: Sketch 62 (91390) - https://sketch.com -->
    <title>ASIST CRISTALERIA</title>
    <desc>Created with Sketch.</desc>
    <g id="15.0-Iconos" stroke="none" stroke-width="1" fill="none" fill-rule="evenodd">
        <g id="SEGUROS" transform="translate(-378.000000, -340.000000)" fill="#000000">
            <g id="Group" transform="translate(74.000000, 154.000000)">
                <g id="Shape-Copy-8" transform="translate(271.146667, 151.200000)">
                    <g id="icon" transform="translate(33.400000, 32.000000)">
                        <g id="ASIST-CRISTALERIA" transform="translate(0.200000, 0.600000)">
                            <g id="Group">
                                <g id="Capa_1" fill-rule="nonzero">
                                    <path d="M51.6975602,2.54748005 L3.50244004,2.54748005 C1.56872662,2.54900206 0.00152203348,4.11620664 2.30000705e-08,6.04992006 L2.30000705e-08,43.6300802 C0.00152203348,45.5637936 1.56872662,47.1309982 3.50244004,47.1325202 L51.6975602,47.1325202 C53.6312737,47.1309982 55.1984782,45.5637936 55.2000003,43.6300802 L55.2000003,6.04992006 C55.1984782,4.11620664 53.6312737,2.54900206 51.6975602,2.54748005 Z M1.99548003,43.6300802 L1.99548003,6.04992006 C1.99699901,5.21827903 2.670799,4.54447904 3.50244004,4.54296005 L26.6036401,4.54296005 L26.6036401,45.1370402 L3.50244004,45.1370402 C2.670799,45.1355212 1.99699901,44.4617213 1.99548003,43.6300802 Z M53.2045202,43.6300802 C53.2030013,44.4617213 52.5292013,45.1355212 51.6975602,45.1370402 L28.5963601,45.1370402 L28.5963601,4.54296005 L51.6975602,4.54296005 C52.5292013,4.54447904 53.2030013,5.21827903 53.2045202,6.04992006 L53.2045202,43.6300802 Z" id="Shape"></path>
                                    <path d="M5.98644005,16.6069201 C6.24533352,16.6087783 6.49478407,16.50979 6.68196005,16.3309201 L9.75936006,13.3335601 C10.0472026,13.0948819 10.1771756,12.7151329 10.095947,12.3501363 C10.0147184,11.9851397 9.73596506,11.6963512 9.37406825,11.6022699 C9.01217143,11.5081887 8.62806501,11.6246554 8.37936006,11.9038801 L5.29092005,14.9040001 C5.00057031,15.1875191 4.9105551,15.6184956 5.06314845,15.9945292 C5.21574179,16.3705628 5.5806261,16.6169423 5.98644005,16.6179601 L5.98644005,16.6069201 Z" id="Path"></path>
                                    <path d="M19.0026001,11.9149201 C18.6127198,11.5264756 17.9821204,11.5264756 17.5922401,11.9149201 L5.28540005,24.1334401 C4.89441558,24.521376 4.89194419,25.1528157 5.27988004,25.5438001 C5.6678159,25.9347846 6.29925558,25.937256 6.69024005,25.5493201 L18.9970801,13.3252801 C19.1850634,13.1391079 19.2912825,12.8858138 19.2923257,12.6212448 C19.2933535,12.3566758 19.1891204,12.1025581 19.0026001,11.9149201 Z" id="Path"></path>
                                    <path d="M36.7549202,16.6069201 C37.0145498,16.6083401 37.264703,16.5094653 37.4532002,16.3309201 L40.5278402,13.3390801 C40.8744666,12.9499175 40.8626348,12.3593815 40.5006985,11.9844155 C40.1387622,11.6094495 39.5490136,11.5767482 39.1478402,11.9094001 L36.0594002,14.9040001 C35.7690504,15.1875191 35.6790352,15.6184956 35.8316286,15.9945292 C35.9842219,16.3705628 36.3491062,16.6169423 36.7549202,16.6179601 L36.7549202,16.6069201 Z" id="Path"></path>
                                    <path d="M48.3607202,11.9094001 L36.0538802,24.1334401 C35.8009576,24.3843906 35.7011279,24.7512111 35.7919961,25.0957237 C35.8828643,25.4402364 36.1506253,25.7101016 36.4944161,25.8036637 C36.838207,25.8972259 37.2057976,25.8002707 37.4587202,25.5493201 L49.7655602,13.3252801 C50.0184828,13.0743296 50.1183125,12.7075092 50.0274443,12.3629965 C49.9365761,12.0184838 49.6688151,11.7486186 49.3250243,11.6550565 C48.9812335,11.5614943 48.6136428,11.6584496 48.3607202,11.9094001 L48.3607202,11.9094001 Z" id="Path"></path>
                                </g>
                            </g>
                        </g>
                    </g>
                </g>
            </g>
        </g>
    </g>
</svg>