<?xml version="1.0" encoding="UTF-8"?>
<svg width="50px" height="53px" viewBox="0 0 50 53" version="1.1" xmlns="http://www.w3.org/2000/svg" xmlns:xlink="http://www.w3.org/1999/xlink">
    <!-- Generator: Sketch 62 (91390) - https://sketch.com -->
    <title>SEG VIAJE</title>
    <desc>Created with Sketch.</desc>
    <g id="15.0-Iconos" stroke="none" stroke-width="1" fill="none" fill-rule="evenodd">
        <g id="SEGUROS" transform="translate(-245.000000, -185.000000)" fill="#000000">
            <g id="Group" transform="translate(74.000000, 154.000000)">
                <g id="Shape-Copy" transform="translate(136.000000, 0.000000)">
                    <g id="icon" transform="translate(33.400000, 31.000000)">
                        <g id="SEG-VIAJE" transform="translate(0.200000, 0.000000)">
                            <g id="Group">
                                <g id="Capa_1" fill-rule="nonzero">
                                    <path d="M50.3870402,40.3471202 L39.4864802,19.5544801 L46.0864802,8.29224006 C47.6163833,5.66621312 46.7346514,2.29745424 44.1144002,0.757680025 C42.8539207,0.0192904255 41.3516195,-0.187759524 39.9383942,0.18213511 C38.5251689,0.552029744 37.3169427,1.46852748 36.5798402,2.72976003 L29.9824801,13.9920001 L6.51552005,14.6784001 C6.19580625,14.6881905 5.90359942,14.8617195 5.74200005,15.1377601 L2.43408003,20.7873601 C2.27894916,21.0435515 2.25680233,21.3588065 2.37459116,21.6341706 C2.49237999,21.9095347 2.73566424,22.1112498 3.02808003,22.1760001 L22.5640801,26.6798401 L17.0940001,36.0228002 L11.2384801,36.6960002 C10.947313,36.7283159 10.6887207,36.8967927 10.5415201,37.1500802 L7.90152005,41.6380802 C7.75509542,41.8898921 7.73483566,42.195685 7.84675958,42.4646133 C7.9586835,42.7335417 8.18991529,42.9346676 8.47176006,43.0082402 L17.9520001,45.4423202 L24.7130401,52.5122402 C24.8879761,52.6955758 25.1301947,52.8000002 25.3836001,52.8000002 L25.4918401,52.8000002 C25.7814612,52.7652895 26.0382659,52.5973412 26.1861601,52.3459202 L28.8261601,47.8579202 C28.9744174,47.6058309 28.9949683,47.2985468 28.8816001,47.0289602 L26.5980001,41.5984802 L32.0733602,32.2396802 L45.5716802,47.0659202 C45.7700542,47.2855408 46.0613987,47.3971962 46.3557409,47.3664051 C46.6500831,47.335614 46.9120125,47.1660806 47.0606402,46.9101602 L50.3659202,41.2605602 C50.5319781,40.9806566 50.539984,40.6343996 50.3870402,40.3471202 Z M46.0944002,44.8800002 L32.5960802,30.0432001 C32.3971433,29.8246683 32.1061257,29.7137857 31.8122095,29.7445322 C31.5182933,29.7752788 31.2565239,29.9439884 31.1071202,30.1989601 L24.7711201,41.0467202 C24.6228628,41.2988096 24.602312,41.6060936 24.7156801,41.8756802 L26.9992801,47.3088002 L25.2252001,50.3395202 L19.1215201,43.9665602 C19.0027574,43.8382994 18.8497777,43.7466948 18.6806401,43.7025602 L10.1376001,41.5113602 L11.9116801,38.4806402 L17.7645601,37.8100802 C18.0555813,37.7773576 18.3140062,37.6089898 18.4615201,37.3560002 L24.7975201,26.5082401 C24.9475532,26.2536567 24.9671668,25.9427814 24.8503201,25.6713601 C24.7295667,25.4046299 24.4914027,25.2094136 24.2061601,25.1433601 L4.67016004,20.6553601 L7.07784005,16.5396001 L30.5500801,15.8400001 C30.8710349,15.83212 31.1648938,15.6582035 31.3262402,15.3806401 L38.1902402,3.67488004 C39.2071373,1.94383043 41.4334573,1.36274318 43.1666402,2.37600003 C44.9082448,3.38989862 45.499046,5.62312728 44.4866402,7.36560005 L37.6226402,19.0740001 C37.4612986,19.3507164 37.4543105,19.6911357 37.6041602,19.9742401 L48.5020802,40.7668802 L46.0944002,44.8800002 Z" id="Shape"></path>
                                </g>
                            </g>
                        </g>
                    </g>
                </g>
            </g>
        </g>
    </g>
</svg>