<?xml version="1.0" encoding="UTF-8"?>
<svg width="53px" height="51px" viewBox="0 0 53 51" version="1.1" xmlns="http://www.w3.org/2000/svg" xmlns:xlink="http://www.w3.org/1999/xlink">
    <!-- Generator: Sketch 62 (91390) - https://sketch.com -->
    <title>SEG SALUD</title>
    <desc>Created with Sketch.</desc>
    <g id="15.0-Iconos" stroke="none" stroke-width="1" fill="none" fill-rule="evenodd">
        <g id="SEGUROS" transform="translate(-789.000000, -188.000000)" fill="#000000">
            <g id="Group" transform="translate(74.000000, 154.000000)">
                <g id="Shape-Copy-5" transform="translate(680.000000, 0.000000)">
                    <g id="icon" transform="translate(34.400000, 32.600000)">
                        <g id="SEG-SALUD" transform="translate(0.800000, 0.800000)">
                            <g id="Group">
                                <g id="Capa_1" fill-rule="nonzero">
                                    <path d="M47.7802002,14.3338001 L39.9126002,14.3338001 C39.4418978,6.99730157 33.354183,1.28765168 26.0026001,1.28765168 C18.6510172,1.28765168 12.5633025,6.99730157 12.0926001,14.3338001 L4.21980004,14.3338001 C1.89003614,14.3380968 0.00286170266,16.226434 2.16667331e-08,18.5562001 L2.16667331e-08,46.5400002 C0.00286514594,48.8693436 1.89045665,50.7569351 4.21980004,50.7598002 L47.7802002,50.7598002 C50.1095436,50.7569351 51.9971351,48.8693436 52,46.5400002 L52,18.5562001 C51.9971386,16.226434 50.1099641,14.3380968 47.7802002,14.3338001 Z M26.0000001,2.92500003 C32.4353496,2.93379136 37.7698859,7.91420528 38.2200002,14.3338001 L13.7800001,14.3338001 C14.2301143,7.91420528 19.5646506,2.93379136 26.0000001,2.92500003 Z M50.3126002,46.5400002 C50.3111671,47.9380121 49.1782121,49.0709671 47.7802002,49.0724002 L4.21980004,49.0724002 C2.82178818,49.0709671 1.68883315,47.9380121 1.68740003,46.5400002 L1.68740003,18.5562001 C1.68883315,17.1581882 2.82178818,16.0252332 4.21980004,16.0238001 L47.7802002,16.0238001 C49.1782121,16.0252332 50.3111671,17.1581882 50.3126002,18.5562001 L50.3126002,46.5400002 Z" id="Shape"></path>
                                    <path d="M29.0992001,23.4962001 L22.4094001,23.4962001 L22.4094001,28.7196001 L17.1834001,28.7196001 L17.1834001,35.4120002 L22.4094001,35.4120002 L22.4094001,40.6354002 L29.0992001,40.6354002 L29.0992001,35.4120002 L34.3200002,35.4120002 L34.3200002,28.7196001 L29.0940001,28.7196001 L29.0992001,23.4962001 Z M32.6352002,30.4200001 L32.6352002,33.7220002 L27.4118001,33.7220002 L27.4118001,38.9480002 L24.0968001,38.9480002 L24.0968001,33.7220002 L18.8708001,33.7220002 L18.8708001,30.4200001 L24.0968001,30.4200001 L24.0968001,25.1940001 L27.4118001,25.1940001 L27.4118001,30.4200001 L32.6352002,30.4200001 Z" id="Shape"></path>
                                </g>
                            </g>
                        </g>
                    </g>
                </g>
            </g>
        </g>
    </g>
</svg>