<?xml version="1.0" encoding="UTF-8"?>
<svg width="31px" height="53px" viewBox="0 0 31 53" version="1.1" xmlns="http://www.w3.org/2000/svg" xmlns:xlink="http://www.w3.org/1999/xlink">
    <!-- Generator: Sketch 62 (91390) - https://sketch.com -->
    <title>SEG CELULAR</title>
    <desc>Created with Sketch.</desc>
    <g id="15.0-Iconos" stroke="none" stroke-width="1" fill="none" fill-rule="evenodd">
        <g id="SEGUROS" transform="translate(-528.000000, -185.000000)" fill="#000000">
            <g id="Group" transform="translate(74.000000, 154.000000)">
                <g id="Shape-Copy-3" transform="translate(408.000000, 0.000000)">
                    <g id="icon" transform="translate(45.400000, 31.000000)">
                        <g id="SEG-CELULAR" transform="translate(0.200000, 0.800000)">
                            <g id="Group">
                                <g id="Capa_1" fill-rule="nonzero">
                                    <path d="M18.9254001,45.8510002 L12.2746001,45.8510002 C11.8042838,45.8764973 11.4359946,46.2652933 11.4359946,46.7363002 C11.4359946,47.2073072 11.8042838,47.5961031 12.2746001,47.6216002 L18.9254001,47.6216002 C19.3957165,47.5961031 19.7640057,47.2073072 19.7640057,46.7363002 C19.7640057,46.2652933 19.3957165,45.8764973 18.9254001,45.8510002 L18.9254001,45.8510002 Z" id="Path"></path>
                                    <path d="M25.0562002,2.16667331e-08 L6.14380009,2.16667331e-08 C3.06692532,0.00429633901 0.573696385,2.49752527 0.569400067,5.57440004 L0.569400067,46.5764002 C0.573696066,49.5699905 2.99940977,51.9957042 5.99300009,52 L25.0120002,52 C28.085247,51.9942935 30.5763902,49.506636 30.5864002,46.4334002 L30.6306002,5.57700004 L30.6306002,5.57700004 C30.627736,2.49910996 28.1340886,0.00429942227 25.0562002,2.16667331e-08 Z M28.8158002,46.4308002 C28.810075,48.5283623 27.1095682,50.2265445 25.0120002,50.2294002 L5.99300009,50.2294002 C3.98117683,50.2208153 2.35441266,48.5882413 2.35300007,46.5764002 L2.35300007,5.57440004 C2.35441358,3.47927508 4.04869224,1.77918613 6.14380009,1.77060003 L25.0562002,1.77060003 C27.1563866,1.77203409 28.8585661,3.4742136 28.8600002,5.57440004 L28.8158002,46.4308002 Z" id="Shape"></path>
                                    <path d="M11.1358001,6.44020005 C11.1164808,6.38640863 11.0911894,6.33495368 11.0604001,6.28680005 C11.0251203,6.23857074 10.9869152,6.19255098 10.9460001,6.14900005 C10.6967871,5.89017642 10.3120839,5.81531526 9.98400011,5.96180005 C9.92997633,5.98056702 9.87845835,6.00588941 9.83060011,6.03720005 C9.78380011,6.07360005 9.73700011,6.11000005 9.69540011,6.14900005 C9.65466163,6.19066012 9.61888956,6.23690206 9.5888001,6.28680005 C9.55453057,6.33410821 9.52656245,6.38567443 9.5056001,6.44020005 C9.48129109,6.49324123 9.46381792,6.54915537 9.4536001,6.60660005 C9.44085949,6.6620134 9.43474998,6.71874462 9.4354001,6.77560005 C9.43483451,6.89194335 9.45875251,7.00710411 9.5056001,7.11360005 C9.5922845,7.33220699 9.76539317,7.50531566 9.98400011,7.59200005 C10.1987053,7.68561902 10.4426949,7.68561902 10.6574001,7.59200005 C10.7665759,7.55109695 10.8651937,7.48624015 10.9460001,7.40220005 C11.0300107,7.3197678 11.0971312,7.22173649 11.1436001,7.11360005 C11.1850862,7.00566428 11.2070939,6.89122425 11.2086001,6.77560005 C11.20796,6.71881384 11.2018653,6.66222049 11.1904001,6.60660005 C11.1781047,6.54936703 11.1598033,6.49359146 11.1358001,6.44020005 L11.1358001,6.44020005 Z" id="Path"></path>
                                    <path d="M21.4864002,5.58220004 L14.3650001,5.58220004 C13.8767804,5.58220004 13.4810001,5.97798033 13.4810001,6.46620005 C13.4810001,6.95441977 13.8767804,7.35020005 14.3650001,7.35020005 L21.4864002,7.35020005 C21.9746199,7.35020005 22.3704002,6.95441977 22.3704002,6.46620005 C22.3704002,5.97798033 21.9746199,5.58220004 21.4864002,5.58220004 Z" id="Path"></path>
                                </g>
                            </g>
                        </g>
                    </g>
                </g>
            </g>
        </g>
    </g>
</svg>