<?xml version="1.0" encoding="UTF-8"?>
<svg width="54px" height="53px" viewBox="0 0 54 53" version="1.1" xmlns="http://www.w3.org/2000/svg" xmlns:xlink="http://www.w3.org/1999/xlink">
    <!-- Generator: Sketch 62 (91390) - https://sketch.com -->
    <title>SEG FRAUDE</title>
    <desc>Created with Sketch.</desc>
    <g id="15.0-Iconos" stroke="none" stroke-width="1" fill="none" fill-rule="evenodd">
        <g id="SEGUROS" transform="translate(-107.000000, -336.000000)" fill="#000000">
            <g id="Group" transform="translate(74.000000, 154.000000)">
                <g id="Shape-Copy-6" transform="translate(0.000000, 151.200000)">
                    <g id="icon" transform="translate(33.400000, 31.000000)">
                        <g id="SEG-FRAUDE" transform="translate(0.200000, 0.000000)">
                            <g id="Group">
                                <g id="Capa_1" fill-rule="nonzero">
                                    <path d="M26.4000001,2.20000675e-08 C11.8196827,2.20000675e-08 2.20000675e-08,11.8196827 2.20000675e-08,26.4000001 C2.20000675e-08,40.9803176 11.8196827,52.8000002 26.4000001,52.8000002 C40.9803176,52.8000002 52.8000002,40.9803176 52.8000002,26.4000001 C52.7839956,11.8263172 40.9736831,0.0160046801 26.4000001,2.20000675e-08 Z M26.4000001,50.9995202 C12.8140603,50.9995202 1.80048003,39.9859399 1.80048003,26.4000001 C1.80048003,12.8140603 12.8140603,1.80048003 26.4000001,1.80048003 C39.9859399,1.80048003 50.9995202,12.8140603 50.9995202,26.4000001 C50.983518,39.9793061 39.9793061,50.983518 26.4000001,50.9995202 Z" id="Shape"></path>
                                    <path d="M25.9564801,25.5182401 L25.4654401,25.4284801 C18.7096801,24.1797601 17.9282401,21.3153601 17.9282401,19.2720001 C17.9282401,16.8960001 19.6996801,12.9016801 26.3313601,12.9016801 C33.0237602,12.9016801 34.8295202,19.2376801 34.9034402,19.5016801 C34.9757704,19.8243812 35.2192111,20.081444 35.5375002,20.1712199 C35.8557893,20.2609957 36.1976764,20.1690292 36.4279714,19.9316858 C36.6582665,19.6943425 36.7398877,19.349839 36.6405602,19.0344001 C36.6220802,18.9578401 34.5840002,11.6899201 27.2316001,11.1355201 L27.2316001,7.47120005 C27.2316001,6.97401123 26.828549,6.57096005 26.3313601,6.57096005 C25.8341713,6.57096005 25.4311201,6.97401123 25.4311201,7.47120005 L25.4311201,11.1249601 C21.5635201,11.3282401 19.3776001,12.8198401 18.2160001,14.0896801 C16.9088745,15.5031666 16.1658353,17.3471438 16.1277601,19.2720001 C16.1277601,23.4300001 19.1611201,26.0964001 25.1380801,27.1920001 L25.6291201,27.2844001 C31.3816802,28.3404001 34.8691202,29.2855201 34.8691202,33.4936802 C34.8691202,36.6458402 31.6034402,40.0488002 26.3287201,40.0488002 C21.5397601,40.0488002 17.9256001,37.2319202 17.9256001,33.4936802 C17.9256001,32.9964913 17.5225489,32.5934402 17.0253601,32.5934402 C16.5281713,32.5934402 16.1251201,32.9964913 16.1251201,33.4936802 C16.1251201,38.0080802 20.0666401,41.4638402 25.4284801,41.8149602 L25.4284801,45.3288002 C25.4284801,45.825989 25.8315313,46.2290402 26.3287201,46.2290402 C26.825909,46.2290402 27.2289601,45.825989 27.2289601,45.3288002 L27.2289601,41.8176002 C33.0818402,41.4295202 36.6696002,37.3296002 36.6696002,33.4989602 C36.6722402,27.4876801 30.9777602,26.4422401 25.9564801,25.5182401 Z" id="Path"></path>
                                </g>
                            </g>
                        </g>
                    </g>
                </g>
            </g>
        </g>
    </g>
</svg>