<?xml version="1.0" encoding="UTF-8"?>
<svg width="53px" height="52px" viewBox="0 0 53 52" version="1.1" xmlns="http://www.w3.org/2000/svg" xmlns:xlink="http://www.w3.org/1999/xlink">
    <!-- Generator: Sketch 62 (91390) - https://sketch.com -->
    <title>ASISt CERRAJERIA</title>
    <desc>Created with Sketch.</desc>
    <g id="15.0-Iconos" stroke="none" stroke-width="1" fill="none" fill-rule="evenodd">
        <g id="SEGUROS" transform="translate(-243.000000, -337.000000)" fill="#000000">
            <g id="Group" transform="translate(74.000000, 154.000000)">
                <g id="Shape-Copy-7" transform="translate(135.573333, 151.200000)">
                    <g id="icon" transform="translate(33.400000, 31.000000)">
                        <g id="ASISt-CERRAJERIA" transform="translate(0.200000, 0.800000)">
                            <g id="Group">
                                <g id="Capa_1" fill-rule="nonzero">
                                    <path d="M9.29240006,52.0000002 L3.01860003,52.0000002 C1.35164696,51.9971342 0.00143088161,50.6457551 -1.01221069e-05,48.9788002 L-1.01221069e-05,43.5682002 C-0.00208133331,42.7671928 0.316211936,41.9986081 0.884000025,41.4336002 L20.1240001,22.1936001 C19.2372078,19.8243071 18.9123532,17.2815413 19.1750001,14.7654001 C19.9550001,6.96540005 26.4550001,0.644800024 34.2550002,0.0494000219 L34.2550002,0.0494000219 C39.0504613,-0.321504718 43.7682518,1.42358045 47.1680322,4.82586072 C50.5678127,8.228141 52.3094297,12.9472128 51.9350002,17.7424001 C51.3396002,25.5554001 45.0112002,32.0424002 37.2164002,32.8224002 C34.7012997,33.0870915 32.1591055,32.7630863 29.7908001,31.8760002 L24.2606001,37.4062002 C24.0840618,37.5827008 23.8446363,37.6818379 23.5950001,37.6818002 L19.7808001,37.6818002 L19.7808001,41.5168002 C19.779367,42.035595 19.3583968,42.4554022 18.8396001,42.4554002 L15.0072001,42.4554002 L15.0072001,46.2800002 C15.0057669,46.798795 14.5847968,47.2186022 14.0660001,47.2186002 L10.2336001,47.2186002 L10.2336001,51.0536002 C10.2349842,51.3041217 10.1364337,51.5448577 9.95977421,51.7224932 C9.78311473,51.9001287 9.5429254,52.0000002 9.29240006,52.0000002 Z M35.5264002,1.87980003 C35.1520002,1.87980003 34.7776002,1.89280003 34.4032002,1.92140003 L34.4032002,1.92140003 C27.4846001,2.44920003 21.7438001,8.06000006 21.0600001,14.9526001 C20.8037799,17.3709661 21.1614719,19.8148967 22.1000001,22.0584001 C22.2454014,22.4094959 22.165404,22.8135856 21.8972001,23.0828001 L2.21260003,42.7622002 C1.99888118,42.9759097 1.87911702,43.2659635 1.87979712,43.5682002 L1.87979712,48.9788002 C1.87979712,49.6081641 2.38923782,50.1187666 3.01860003,50.1202002 L8.35380006,50.1202002 L8.35380006,46.2800002 C8.35379808,45.7612035 8.7736053,45.3402334 9.29240006,45.3388002 L13.1274001,45.3388002 L13.1274001,41.5142002 C13.1267093,41.2648178 13.2252921,41.0254127 13.4013887,40.8488284 C13.5774853,40.672244 13.8166167,40.5729992 14.0660001,40.5730002 L17.9010001,40.5730002 L17.9010001,36.7406002 C17.9003093,36.4912178 17.9988922,36.2518127 18.1749887,36.0752283 C18.3510853,35.898644 18.5902168,35.7993992 18.8396001,35.7994002 L23.2258001,35.7994002 L28.9172001,30.1080001 C29.1870961,29.8410781 29.5903628,29.7612436 29.9416001,29.9052001 C32.1854049,30.8426423 34.6290567,31.2002935 37.0474002,30.9452002 C43.9478002,30.2510001 49.5508002,24.5102001 50.0786002,17.5916001 C50.4020923,13.533819 49.0121318,9.52590663 46.2457572,6.53970402 C43.4793825,3.55350141 39.5892351,1.86172583 35.5186002,1.87452708 L35.5264002,1.87980003 Z" id="Shape"></path>
                                    <path d="M39.1274002,18.5848001 C35.9683314,18.5848001 33.4074002,16.0238689 33.4074002,12.8648001 C33.4074002,9.70573129 35.9683314,7.14480005 39.1274002,7.14480005 C42.286469,7.14480005 44.8474002,9.70573129 44.8474002,12.8648001 C44.8474002,14.3818384 44.2447591,15.8367428 43.172051,16.9094509 C42.0993429,17.982159 40.6444385,18.5848001 39.1274002,18.5848001 Z M39.1274002,9.03760006 C37.0093882,9.03760006 35.2924002,10.7545881 35.2924002,12.8726001 C35.2924002,14.9906121 37.0093882,16.7076001 39.1274002,16.7076001 C41.2454122,16.7076001 42.9624002,14.9906121 42.9624002,12.8726001 C42.9609661,10.7551824 41.2448179,9.03903414 39.1274002,9.03760006 L39.1274002,9.03760006 Z" id="Shape"></path>
                                </g>
                            </g>
                        </g>
                    </g>
                </g>
            </g>
        </g>
    </g>
</svg>