<?xml version="1.0" encoding="UTF-8"?>
<svg width="35px" height="53px" viewBox="0 0 35 53" version="1.1" xmlns="http://www.w3.org/2000/svg" xmlns:xlink="http://www.w3.org/1999/xlink">
    <!-- Generator: Sketch 62 (91390) - https://sketch.com -->
    <title>ASIST ELECTRICIDAD</title>
    <desc>Created with Sketch.</desc>
    <g id="15.0-Iconos" stroke="none" stroke-width="1" fill="none" fill-rule="evenodd">
        <g id="SEGUROS" transform="translate(-661.000000, -337.000000)" fill="#000000">
            <g id="Group" transform="translate(74.000000, 154.000000)">
                <g id="Shape-Copy-10" transform="translate(544.000000, 151.200000)">
                    <g id="icon" transform="translate(42.400000, 32.600000)">
                        <g id="ASIST-ELECTRICIDAD">
                            <g id="Group">
                                <g id="Capa_1" fill-rule="nonzero">
                                    <path d="M30.767143,13.3482858 L29.6460002,13.3482858 L29.6460002,3.45342861 C29.6460002,2.21963737 28.9877805,1.07956723 27.9192859,0.4626716 C26.8507914,-0.154224032 25.5343518,-0.154224032 24.4658573,0.4626716 C23.3973627,1.07956723 22.739143,2.21963737 22.739143,3.45342861 L22.739143,13.3482858 L13.3225715,13.3482858 L13.3225715,3.45342861 C13.2715138,1.58214171 11.7398406,0.0916899537 9.86785724,0.0916899537 C7.99587392,0.0916899537 6.46420072,1.58214171 6.41314294,3.45342861 L6.41314294,13.3482858 L5.23285722,13.3482858 C2.83680062,13.3511197 0.895119668,15.2928006 0.892285772,17.6888572 L0.892285772,26.3082858 C0.902454946,33.7655613 5.74405246,40.3562939 12.857143,42.5957145 L12.857143,48.1551431 C12.8585445,49.9584153 14.317027,51.421495 16.1202858,51.4285717 L19.4142858,51.4285717 C20.3008667,51.4285717 21.1511355,51.0763788 21.7780428,50.4494715 C22.4049501,49.8225641 22.757143,48.9722953 22.757143,48.0857145 L22.757143,42.7114288 C30.0613157,40.5968308 35.0911512,33.912389 35.1000002,26.3082858 L35.1000002,17.6888572 C35.0971787,15.295805 33.1601865,13.3553642 30.767143,13.3482858 Z M24.5957144,3.45342861 C24.6300976,2.59712238 25.3342896,1.92063823 26.1912859,1.92063823 C27.0482821,1.92063823 27.7524742,2.59712238 27.7868573,3.45342861 L27.7868573,13.3482858 L24.5957144,13.3482858 L24.5957144,3.45342861 Z M8.2722858,3.45342861 C8.30666895,2.59712238 9.01086099,1.92063823 9.86785724,1.92063823 C10.7248535,1.92063823 11.4290455,2.59712238 11.4634287,3.45342861 L11.4634287,13.3482858 L8.2722858,13.3482858 L8.2722858,3.45342861 Z M20.8980001,48.0857145 C20.8965847,48.9045603 20.2331316,49.5680133 19.4142858,49.5694288 L16.1202858,49.5694288 C15.3397844,49.5680136 14.7074154,48.9356446 14.7060001,48.1551431 L14.7060001,43.0637145 C15.7784294,43.2737062 16.8686337,43.3796265 17.9614287,43.3800002 L18.0385716,43.3800002 C18.9968578,43.3784279 19.953334,43.2967146 20.8980001,43.1357145 L20.8980001,48.0857145 Z M33.2408573,26.3082858 C33.2323554,34.7054292 26.4279991,41.5109359 18.0308573,41.5208573 L17.9537144,41.5208573 C9.55958546,41.5066871 2.75992138,34.7024225 2.75142864,26.3082858 L2.75142864,17.6888572 C2.75284599,16.3189896 3.86298957,15.208846 5.23285722,15.2074287 L30.767143,15.2074287 C32.1370107,15.208846 33.2471543,16.3189896 33.2485716,17.6888572 L33.2408573,26.3082858 Z" id="Shape"></path>
                                    <path d="M20.849143,26.5500001 L16.5497144,26.5500001 L18.9000001,20.2397144 C19.0157542,19.9287402 18.9568126,19.5796342 18.7453781,19.3239011 C18.5339436,19.0681681 18.2021381,18.9446599 17.8749495,18.9999011 C17.5477609,19.0551422 17.274897,19.2807402 17.159143,19.5917144 L14.3305715,27.1542858 C14.2244812,27.4391274 14.2645613,27.7578631 14.4378699,28.007571 C14.6111785,28.2572789 14.8957575,28.4063214 15.1997144,28.4065716 L19.517143,28.4065716 L17.1565716,34.835143 C16.9805227,35.3165754 17.2280288,35.8495769 17.7094287,36.0257145 C17.8119183,36.0653983 17.9209548,36.085461 18.0308573,36.0848705 C18.4203044,36.0840677 18.7680945,35.8409223 18.9025716,35.4754287 L21.731143,27.797143 C21.8352574,27.5124779 21.793836,27.194911 21.6201873,26.9464755 C21.4465386,26.69804 21.162536,26.5500299 20.8594287,26.5500001 L20.849143,26.5500001 Z" id="Path"></path>
                                </g>
                            </g>
                        </g>
                    </g>
                </g>
            </g>
        </g>
    </g>
</svg>