<?xml version="1.0" encoding="UTF-8"?>
<svg width="39px" height="53px" viewBox="0 0 39 53" version="1.1" xmlns="http://www.w3.org/2000/svg" xmlns:xlink="http://www.w3.org/1999/xlink">
    <!-- Generator: Sketch 62 (91390) - https://sketch.com -->
    <title>ASIST GASFITERIA</title>
    <desc>Created with Sketch.</desc>
    <g id="15.0-Iconos" stroke="none" stroke-width="1" fill="none" fill-rule="evenodd">
        <g id="SEGUROS" transform="translate(-522.000000, -337.000000)" fill="#000000">
            <g id="Group" transform="translate(74.000000, 154.000000)">
                <g id="Shape-Copy-9" transform="translate(406.720000, 151.200000)">
                    <g id="icon" transform="translate(39.400000, 29.000000)">
                        <g id="ASIST-GASFITERIA" transform="translate(0.600000, 0.400000)">
                            <g id="Group">
                                <g id="Capa_1" fill-rule="nonzero">
                                    <path d="M29.9455978,19.6011334 L29.9455978,23.3615739 C29.9455978,23.8804231 30.3662081,24.3010334 30.8850573,24.3010334 L36.9850383,24.3010334 C37.234649,24.3017249 37.4742733,24.2030517 37.6510194,24.0267939 C37.8277655,23.8505361 37.9271012,23.6111856 37.9271002,23.3615739 L37.9271002,20.1268144 C37.9530237,17.7399905 37.5818944,15.365467 36.8288954,13.1003858 C36.1420415,11.0501955 35.0459745,9.16085218 33.6071478,7.5469048 C32.1681321,5.97181537 30.4036917,4.72862639 28.4362168,3.90357146 C26.2868297,3.01581565 23.9797339,2.5731649 21.654412,2.60238097 C19.3342779,2.57462986 17.0325754,3.01726495 14.8882215,3.90357146 C12.9158327,4.72654423 11.1467219,5.96989514 9.70427866,7.5469048 C8.26617484,9.15940373 7.17015422,11.0468964 6.48253102,13.095181 C5.73163629,15.3607073 5.36141911,17.7350218 5.38692864,20.1216096 L5.38692864,38.3955287 C3.68218169,39.6411105 2.67438684,41.6256042 2.67438684,43.7369157 C2.67438684,45.8482271 3.68218169,47.8327209 5.38692864,49.0783026 L5.38692864,52.763274 L3.16709768,52.763274 C2.81919014,52.7449695 2.48958347,52.9201667 2.3101296,53.2187818 C2.13067572,53.517397 2.13067572,53.8906725 2.3101296,54.1892877 C2.48958347,54.4879029 2.81919014,54.6631001 3.16709768,54.6447955 L15.4685525,54.6447955 C15.9689119,54.6184699 16.3611178,54.2050863 16.3611178,53.7040348 C16.3611178,53.2029833 15.9689119,52.7895996 15.4685525,52.763274 L13.3684311,52.763274 L13.3684311,48.9898216 C15.0017002,47.7374123 15.9592957,45.796395 15.9592957,43.7382169 C15.9592957,41.6800387 15.0017002,39.7390214 13.3684311,38.4866121 L13.3684311,19.6011334 C13.3528299,18.3301616 13.5489552,17.0654614 13.948762,15.8589096 C14.2943166,14.817588 14.848646,13.8576948 15.5778525,13.0379286 C16.3014087,12.2474189 17.1898124,11.6255363 18.1802335,11.216262 C20.4242676,10.3400754 22.9157851,10.3400754 25.1598192,11.216262 C26.1441859,11.6283322 27.0269234,12.2499784 27.7465859,13.0379286 C28.4771227,13.8576207 29.0331747,14.8174302 29.3808811,15.8589096 C29.7744961,17.0665705 29.9653185,18.3310985 29.9455978,19.6011334 Z M11.4869096,52.7684788 L7.26845007,52.7684788 L7.26845007,50.0567978 C8.64085271,50.5086461 10.1242852,50.4930888 11.4869096,50.0125574 L11.4869096,52.7684788 Z M14.0893294,43.7434216 C14.0979886,45.9101264 12.6460699,47.8108359 10.5533615,48.3723132 C8.46065309,48.9337906 6.25229513,48.0151396 5.17523844,46.1350774 C4.09818176,44.2550151 4.42270089,41.8853206 5.96555587,40.3640436 C7.50841086,38.8427666 9.88244066,38.5516533 11.7471477,39.6550811 C11.8469456,39.7594966 11.9687321,39.8403913 12.1036739,39.8918978 C13.3421975,40.7839247 14.0762165,42.2171017 14.0762787,43.7434216 L14.0893294,43.7434216 Z M25.8858835,9.48567862 C23.1699453,8.40632632 20.1440835,8.40632632 17.4281454,9.48567862 C16.1926921,10.0038541 15.0852035,10.7854018 14.1829763,11.7757739 C13.282351,12.7843102 12.5961721,13.9654233 12.166131,15.2473501 C11.7006442,16.6510952 11.4711247,18.1223064 11.4869096,19.6011334 L11.4869096,37.4742859 C10.1236701,36.9972504 8.64139433,36.9817052 7.26845007,37.4300454 L7.26845007,20.1268144 C7.24136992,17.9473109 7.57733251,15.7785053 8.2625596,13.7093429 C8.86620135,11.8999828 9.83225886,10.232626 11.1017572,8.80905957 C12.3564194,7.43243513 13.8964358,6.34625284 15.6142858,5.62634765 C17.5291331,4.84219336 19.582844,4.45358169 21.6518097,4.48390241 C23.7224857,4.45330928 25.7779514,4.84191799 27.6945383,5.62634765 C29.4123078,6.3465594 30.9529386,7.43166072 32.2096692,8.80645719 C33.4768812,10.2326632 34.442631,11.9003742 35.0488669,13.7093429 C35.7328231,15.7788117 36.0687525,17.9474033 36.0429764,20.1268144 L36.0429764,22.4221144 L31.8271192,22.4221144 L31.8271192,19.6011334 C31.8438085,18.1220347 31.6133642,16.6505334 31.1452954,15.2473501 C30.7166562,13.9647893 30.0303206,12.7834064 29.1284502,11.7757739 C28.2271418,10.7855214 27.1205248,10.003962 25.8858835,9.48567862 Z" id="Shape"></path>
                                    <path d="M34.5882454,27.8012358 C34.4097057,27.6275658 34.1693582,27.5321406 33.9203152,27.5359317 C33.6712721,27.5399537 33.4340359,27.6428705 33.2610311,27.8220549 C32.7691811,28.3425311 28.4596383,32.8758787 28.4596383,36.3526597 C28.4596383,39.3773635 30.9116452,41.8293704 33.936349,41.8293704 C36.9610528,41.8293704 39.4130597,39.3773635 39.4130597,36.3526597 C39.4130597,32.5037382 34.7860264,27.9912097 34.5882454,27.8012358 Z M33.9350478,39.9491502 C31.9503721,39.9462806 30.3425927,38.3373369 30.3411597,36.3526597 C30.3411597,34.400874 32.5557859,31.449774 33.9532645,29.8467073 C35.3455383,31.3691001 37.5315383,34.2135025 37.5315383,36.3526597 C37.5286717,38.337758 35.9201461,39.9462836 33.9350478,39.9491502 L33.9350478,39.9491502 Z" id="Shape"></path>
                                </g>
                            </g>
                        </g>
                    </g>
                </g>
            </g>
        </g>
    </g>
</svg>