<?xml version="1.0" encoding="UTF-8"?>
<svg width="56px" height="52px" viewBox="0 0 56 52" version="1.1" xmlns="http://www.w3.org/2000/svg" xmlns:xlink="http://www.w3.org/1999/xlink">
    <!-- Generator: Sketch 62 (91390) - https://sketch.com -->
    <title>SEG VIDA</title>
    <desc>Created with Sketch.</desc>
    <g id="15.0-Iconos" stroke="none" stroke-width="1" fill="none" fill-rule="evenodd">
        <g id="SEGUROS" transform="translate(-379.000000, -186.000000)" fill="#000000">
            <g id="Group" transform="translate(74.000000, 154.000000)">
                <g id="Shape-Copy-2" transform="translate(272.000000, 0.000000)">
                    <g id="icon" transform="translate(33.400000, 30.000000)">
                        <g id="SEG-VIDA" transform="translate(0.200000, 0.200000)">
                            <g id="Group">
                                <g id="Capa_1" fill-rule="nonzero">
                                    <path d="M27.6000001,53.1493266 L27.6000001,53.1493266 C27.3038648,53.1493266 27.024894,53.0103474 26.8465201,52.7739602 C21.5307601,45.7083602 16.3750801,41.5462802 11.8266001,37.8699602 C4.96800004,32.3306402 2.30000705e-08,28.3258801 2.30000705e-08,18.2574001 C2.30000705e-08,14.1974401 1.71672003,10.1181601 4.71132004,7.06008005 C7.85222083,3.84086665 12.164533,2.03328084 16.6621201,2.05055558 C22.9466401,2.05055558 26.1427201,5.17776004 27.5972401,7.33056005 C29.0490001,5.17776004 32.2423202,2.05055558 38.5378802,2.05055558 C43.0354673,2.03328084 47.3477795,3.84086665 50.4886802,7.06008005 C53.4832802,10.1181601 55.2000003,14.1974401 55.2000003,18.2574001 C55.2000003,28.3258801 50.2320002,32.3334002 43.3734002,37.8727202 C38.8249202,41.5462802 33.6692402,45.7083602 28.3507201,52.7767202 C28.173208,53.0123187 27.8949849,53.1504073 27.6000001,53.1493266 Z M16.6621201,3.93300004 C9.52476006,3.93300004 1.88232003,9.68760006 1.88232003,18.2574001 C1.88232003,27.4261201 6.29832005,31.0003202 13.0078801,36.4099202 C17.2113601,39.8019602 22.3918801,43.9861202 27.6000001,50.6598002 C32.8081202,43.9861202 37.9886402,39.8019602 42.1921202,36.4099202 C48.8906402,31.0003202 53.3176802,27.4261201 53.3176802,18.2574001 C53.3176802,9.68760006 45.6752402,3.93300004 38.5378802,3.93300004 C31.7344802,3.93300004 29.2228801,7.91568006 28.4583601,9.62688006 C28.3066051,9.96445905 27.9701154,10.1808511 27.6000001,10.1788801 L27.6000001,10.1788801 C27.2305015,10.1787429 26.8950577,9.9630234 26.7416401,9.62688006 C25.9743601,7.91568006 23.4600001,3.93300004 16.6621201,3.93300004 Z" id="Shape"></path>
                                </g>
                            </g>
                        </g>
                    </g>
                </g>
            </g>
        </g>
    </g>
</svg>