<?xml version="1.0" encoding="UTF-8"?>
<svg width="54px" height="50px" viewBox="0 0 54 50" version="1.1" xmlns="http://www.w3.org/2000/svg" xmlns:xlink="http://www.w3.org/1999/xlink">
    <!-- Generator: Sketch 62 (91390) - https://sketch.com -->
    <title>SEG AUTO</title>
    <desc>Created with Sketch.</desc>
    <g id="15.0-Iconos" stroke="none" stroke-width="1" fill="none" fill-rule="evenodd">
        <g id="SEGUROS" transform="translate(-651.000000, -188.000000)" fill="#000000">
            <g id="Group" transform="translate(74.000000, 154.000000)">
                <g id="Shape-Copy-4" transform="translate(544.000000, 0.000000)">
                    <g id="icon" transform="translate(33.400000, 32.600000)">
                        <g id="SEG-AUTO" transform="translate(0.200000, 0.000000)">
                            <g id="Group">
                                <g id="Capa_1" fill-rule="nonzero">
                                    <path d="M49.9672802,36.4557602 L49.9672802,32.0364002 C49.9472361,30.8166045 49.7697688,29.6045027 49.4392802,28.4301601 C48.7080002,25.6687201 46.7860802,23.4775201 44.2886402,22.5482401 L44.2886402,22.2842401 C44.2886402,17.0438401 38.8212002,11.7638401 38.1955202,11.1777601 C32.7914402,6.10896005 24.9268801,3.01224003 15.2460001,2.06976003 C15.1795059,2.05303935 15.1112794,2.04417877 15.0427201,2.04336003 L15.0057601,2.04336003 C13.1920801,1.87440003 11.3256001,1.77936003 9.39048006,1.75560003 L6.57888005,1.75560003 C4.65432004,1.75560003 2.83272003,3.63264004 2.83272003,5.62056005 L2.83272003,25.4522401 L2.54232003,25.5393601 C1.74213211,25.7908695 1.05608205,26.3161558 0.604560025,27.0230401 C0.198000023,27.6856801 2.20000675e-08,28.5700801 2.20000675e-08,29.7237601 L2.20000675e-08,42.1634402 C0.00408886004,42.2054427 0.0120425398,42.2469785 0.0237600221,42.2875202 C0.0237600221,42.4406402 2.20000675e-08,42.5911202 2.20000675e-08,42.7468802 C2.20000675e-08,47.3061602 3.58248004,51.0127202 7.98336006,51.0127202 C10.5527244,50.9983911 12.9537677,49.7323506 14.4170401,47.6203202 L38.3829602,47.6203202 C39.8462326,49.7323506 42.2472759,50.9983911 44.8166402,51.0127202 C49.2175202,51.0127202 52.8000099,47.3167202 52.8000099,42.7468802 C52.803648,40.3402143 51.7716689,38.0483165 49.9672802,36.4557602 L49.9672802,36.4557602 Z M42.5040002,22.1522401 L22.7911201,18.7044001 L21.8803201,18.5565601 C20.5095432,18.3666428 19.1517706,18.0924432 17.8147201,17.7355201 C17.2387278,17.5693583 16.7407907,17.2033933 16.4102401,16.7032801 C16.1066401,16.2122401 15.9535201,15.4281601 15.9535201,14.3748001 L15.9535201,4.02072004 C24.8424001,5.01600004 32.0390402,7.92000006 36.9969602,12.5716801 C39.0139202,14.4619201 42.4036802,18.5829601 42.5040002,22.1522401 Z M7.98336006,49.1620802 C4.57512004,49.1620802 1.80048003,46.2924002 1.80048003,42.7627202 C1.80048003,39.2330402 4.57512004,36.3607202 7.98336006,36.3607202 C11.3916001,36.3607202 14.1662401,39.2330402 14.1662401,42.7680002 C14.1662401,46.3029602 11.3916001,49.1620802 7.98336006,49.1620802 Z M37.3876802,45.7723202 L15.4123201,45.7723202 C15.777998,44.8110126 15.9658528,43.7912298 15.9667201,42.7627202 C15.9667201,38.2034402 12.3868801,34.4968802 7.98336006,34.4968802 C5.56492075,34.5076482 3.28582505,35.6301588 1.80312003,37.5408002 L1.80312003,29.7396001 C1.80312003,28.7707201 1.97736003,28.2796801 2.12520003,28.0420801 C2.34891713,27.702351 2.68556026,27.452674 3.07560003,27.3372001 L3.98376004,27.0732001 C4.37506315,26.9518332 4.64022299,26.5879093 4.63584004,26.1782401 L4.63584004,5.63640005 C4.63584004,4.66488004 5.63376005,3.63528004 6.57888005,3.63528004 L9.39312006,3.63528004 C11.0272801,3.63528004 12.6112801,3.72504004 14.1451201,3.84912004 L14.1451201,14.3748001 C14.1451201,15.8083201 14.3880001,16.8986401 14.8843201,17.7064801 C15.4416253,18.5757852 16.2906132,19.2179084 17.2788001,19.5175201 C18.6982794,19.9029235 20.140885,20.1974408 21.5978401,20.3992801 L43.2458402,24.1771201 L43.3197602,24.1771201 C43.4121602,24.2035201 43.5072002,24.2299201 43.6101602,24.2668801 C45.5954402,24.9744001 47.1292802,26.7141601 47.7153602,28.9212001 C47.9991123,29.9340792 48.1508476,30.979367 48.1668002,32.0311202 L48.1668002,35.2624802 C47.1234184,34.7562327 45.9789918,34.4926896 44.8192802,34.4916002 C40.4157602,34.4916002 36.8359202,38.1876002 36.8359202,42.7574402 C36.8353037,43.7875616 37.0222734,44.8091856 37.3876802,45.7723202 Z M44.8166402,49.1620802 C41.4084002,49.1620802 38.6337602,46.2924002 38.6337602,42.7627202 C38.6337602,39.2330402 41.4084002,36.3607202 44.8166402,36.3607202 C48.2248802,36.3607202 50.9995202,39.2330402 50.9995202,42.7627202 C50.9995202,46.2924002 48.2248802,49.1620802 44.8166402,49.1620802 Z" id="Shape"></path>
                                </g>
                            </g>
                        </g>
                    </g>
                </g>
            </g>
        </g>
    </g>
</svg>