<?xml version="1.0" encoding="UTF-8"?>
<svg width="54px" height="53px" viewBox="0 0 54 53" version="1.1" xmlns="http://www.w3.org/2000/svg" xmlns:xlink="http://www.w3.org/1999/xlink">
    <!-- Generator: Sketch 62 (91390) - https://sketch.com -->
    <title>SEG HOGAR</title>
    <desc>Created with Sketch.</desc>
    <g id="15.0-Iconos" stroke="none" stroke-width="1" fill="none" fill-rule="evenodd">
        <g id="SEGUROS" transform="translate(-107.000000, -185.000000)" fill="#000000">
            <g id="Group" transform="translate(74.000000, 154.000000)">
                <g id="Shape">
                    <g id="icon" transform="translate(30.400000, 31.000000)">
                        <g id="SEG-HOGAR">
                            <g id="Group">
                                <g id="Capa_1" fill-rule="nonzero">
                                    <path d="M55.6233457,35.1621602 L38.2254547,5.16912004 C36.3686658,1.9725352 32.9385163,0.00355746869 29.2265456,0.00355746869 C25.5145749,0.00355746869 22.0844254,1.9725352 20.2276365,5.16912004 L2.77665457,35.1621602 C2.59914917,35.4412235 2.58951423,35.7945386 2.75154971,36.0827601 C2.91358519,36.3709815 3.22128198,36.5478453 3.55328612,36.5435975 C3.88529027,36.5393496 4.18831016,36.3546719 4.34283639,36.0624002 L11.0508728,24.5203201 L11.0508728,48.3568802 C11.0537983,50.8095415 13.0522982,52.7970908 15.5184728,52.8000002 L42.8815275,52.8000002 C45.347702,52.7970908 47.346202,50.8095415 47.3491275,48.3568802 L47.3491275,24.5044801 L54.0571639,36.0624002 C54.2116901,36.3546719 54.51471,36.5393496 54.8467141,36.5435975 C55.1787183,36.5478453 55.4864151,36.3709815 55.6484506,36.0827601 C55.810486,35.7945386 55.8008511,35.4412235 55.6233457,35.1621602 L55.6233457,35.1621602 Z M23.471491,51.0021602 L23.471491,33.1557602 C23.471491,32.8306191 23.7365222,32.5670402 24.0634547,32.5670402 L34.3365456,32.5670402 C34.6634781,32.5670402 34.9285092,32.8306191 34.9285092,33.1557602 L34.9285092,50.9995202 L23.471491,51.0021602 Z M45.5387275,48.3621602 C45.5387275,49.820192 44.350247,51.0021602 42.884182,51.0021602 L36.7362547,51.0021602 L36.7362547,33.1557602 C36.7348256,31.8419743 35.6681599,30.77526 34.3471638,30.7665602 L24.0740728,30.7665602 C22.7524703,30.7738219 21.6849617,31.8413792 21.6849819,33.1557602 L21.6849819,50.9995202 L15.5184728,50.9995202 C14.0524078,50.9995202 12.8639273,49.817552 12.8639273,48.3595202 L12.8639273,21.4077601 L21.7805456,6.07200005 C23.3145757,3.43227827 26.147596,1.80643874 29.2132729,1.80643874 C32.2789497,1.80643874 35.1119701,3.43227827 36.6460002,6.07200005 L45.5387275,21.3840001 L45.5387275,48.3621602 Z" id="Shape"></path>
                                </g>
                            </g>
                        </g>
                    </g>
                </g>
            </g>
        </g>
    </g>
</svg>