<?xml version="1.0" encoding="UTF-8"?>
<svg width="51px" height="51px" viewBox="0 0 51 51" version="1.1" xmlns="http://www.w3.org/2000/svg" xmlns:xlink="http://www.w3.org/1999/xlink">
    <!-- Generator: Sketch 62 (91390) - https://sketch.com -->
    <title>BAN/BAN01</title>
    <desc>Created with Sketch.</desc>
    <g id="15.0-Iconos" stroke="none" stroke-width="1" fill="none" fill-rule="evenodd">
        <g id="Banking" transform="translate(-106.000000, -968.000000)" fill="#444444">
            <g id="Group" transform="translate(70.000000, 73.000000)">
                <g id="BAN021" transform="translate(0.000000, 865.420536)">
                    <g id="Shape">
                        <g id="icon" transform="translate(28.400000, 21.996683)">
                            <g id="BAN/BAN021" transform="translate(0.400000, 0.398673)">
                                <path d="M38.6899599,8.17567837 C38.9972517,7.99993348 39.360533,7.95306826 39.7016789,8.04289337 C40.0428247,8.13402034 40.3344914,8.35793231 40.5115594,8.66385847 L40.5115594,8.66385847 L43.7889183,14.3410665 L50.3449079,14.3410665 C51.0818871,14.3410665 51.6782413,14.937297 51.6782413,15.6741234 L51.6782413,15.6741234 L51.6782413,22.2287538 L57.3566266,25.505418 C57.6626162,25.6824645 57.8865746,25.9740707 57.9777205,26.3151458 C58.0688663,26.656221 58.0219911,27.0207288 57.8448925,27.326655 L57.8448925,27.326655 L54.5649599,33.003863 L57.8448927,38.6810713 C58.0219914,38.9869975 58.0688663,39.3515051 57.9777205,39.6925802 C57.8865746,40.0336554 57.6626162,40.3252616 57.3566266,40.5023081 L57.3566266,40.5023081 L51.6782413,43.7789723 L51.6782413,50.3336027 C51.6782413,51.0704291 51.0818871,51.6666596 50.3449079,51.6666596 L50.3449079,51.6666596 L43.7889183,51.6666596 L40.5115591,57.3438676 C40.3344911,57.6497938 40.0428245,57.8737057 39.7016786,57.9648327 C39.5883975,57.9947742 39.4725119,58.010396 39.3566266,58.010396 C39.1248557,58.010396 38.8943871,57.9492109 38.6899599,57.8320477 L38.6899599,57.8320477 L33.0115746,54.5527797 L27.3331893,57.8320477 C27.0258978,58.0064907 26.6613143,58.0520541 26.3214706,57.9648327 C25.9803247,57.8737057 25.6886581,57.6497938 25.5115594,57.3438676 L25.5115594,57.3438676 L22.2342309,51.6666596 L15.6782413,51.6666596 C14.9412621,51.6666596 14.3449079,51.0704291 14.3449079,50.3336027 L14.3449079,50.3336027 L14.3449079,43.7789723 L8.6665226,40.5023081 C8.360533,40.3252616 8.13657486,40.0336551 8.045429,39.69258 C7.95428313,39.3515048 8.00115806,38.9869972 8.1782274,38.6810711 L8.1782274,38.6810711 L11.4581893,33.003863 L8.1782274,27.326655 C8.00115806,27.0207288 7.95428286,26.656221 8.04542873,26.3151458 C8.1365746,25.9740707 8.360533,25.6824645 8.6665226,25.505418 L8.6665226,25.505418 L14.3449079,22.2287538 L14.3449079,15.6741234 C14.3449079,14.937297 14.9412621,14.3410665 15.6782413,14.3410665 L15.6782413,14.3410665 L22.2342309,14.3410665 L25.5115594,8.66385847 C25.6886578,8.35793231 25.9803245,8.13402034 26.3214703,8.04289337 C26.6613141,7.95306826 27.0258975,7.99993348 27.3331893,8.17567837 L27.3331893,8.17567837 L33.0115746,11.4549463 Z M38.8683455,11.1516236 L33.6782413,14.1483982 C33.2667829,14.3853283 32.7563663,14.3853283 32.3449079,14.1483982 L32.3449079,14.1483982 L27.1548037,11.1516236 L24.1587101,16.3406518 C23.9204287,16.7533268 23.4803245,17.0071803 23.0037621,17.0071803 L23.0037621,17.0071803 L17.0115746,17.0071803 L17.0115746,22.9981254 C17.0115746,23.474589 16.7576685,23.914602 16.3449079,24.152834 L16.3449079,24.152834 L11.1548037,27.1483064 L14.1521997,32.3373346 C14.390481,32.7500095 14.390481,33.2577165 14.1521997,33.6703915 L14.1521997,33.6703915 L11.1548037,38.8594194 L16.3449079,41.8548921 C16.7576685,42.093124 17.0115746,42.5331371 17.0115746,43.0096007 L17.0115746,43.0096007 L17.0115746,49.0005458 L23.0037621,49.0005458 C23.4803245,49.0005458 23.9204287,49.2543993 24.1587101,49.6670742 L24.1587101,49.6670742 L27.1548037,54.8561024 L32.3449079,51.8593279 C32.550637,51.7408628 32.7811058,51.6809795 33.0115746,51.6809795 C33.2420434,51.6809795 33.4725122,51.7408628 33.6782413,51.8593279 L33.6782413,51.8593279 L38.8683453,54.8561024 L41.8644391,49.6670742 C42.1027205,49.2543993 42.5428247,49.0005458 43.0193871,49.0005458 L43.0193871,49.0005458 L49.0115746,49.0005458 L49.0115746,43.0096007 C49.0115746,42.5331371 49.2654807,42.093124 49.6782413,41.8548921 L49.6782413,41.8548921 L54.8683455,38.8594197 L51.8709495,33.6703915 C51.6326682,33.2577165 51.6326682,32.7500095 51.8709495,32.3373346 L51.8709495,32.3373346 L54.8683455,27.1483066 L49.6782413,24.152834 C49.2654807,23.914602 49.0115746,23.474589 49.0115746,22.9981254 L49.0115746,22.9981254 L49.0115746,17.0071803 L43.0193871,17.0071803 C42.5428247,17.0071803 42.1027205,16.7533268 41.8644391,16.3406518 L41.8644391,16.3406518 L38.8683455,11.1516236 Z M41.0115746,33.003863 C43.9529807,33.003863 46.3449079,35.3952943 46.3449079,38.3360906 L46.3449079,38.3360906 L46.3449079,41.0022044 C46.3449079,43.9430007 43.9529807,46.334432 41.0115746,46.334432 C38.0701685,46.334432 35.6782413,43.9430007 35.6782413,41.0022044 L35.6782413,41.0022044 L35.6782413,38.3360906 C35.6782413,35.3952943 38.0701685,33.003863 41.0115746,33.003863 Z M41.4021997,22.729952 C41.9230327,22.2092266 42.7667829,22.2092266 43.2876162,22.729952 C43.8084495,23.2506773 43.8084495,24.0942522 43.2876162,24.6149776 L43.2876162,24.6149776 L24.6209495,43.2777741 C24.360533,43.5381369 24.0193871,43.6683182 23.6782413,43.6683182 C23.3370954,43.6683182 22.9959495,43.5381369 22.735533,43.2777741 C22.2146997,42.757049 22.2146997,41.9134738 22.735533,41.3927485 L22.735533,41.3927485 Z M41.0115746,35.6699768 C39.5415226,35.6699768 38.3449079,36.8663434 38.3449079,38.3360906 L38.3449079,38.3360906 L38.3449079,41.0022044 C38.3449079,42.4719516 39.5415226,43.6683182 41.0115746,43.6683182 C42.4816266,43.6683182 43.6782413,42.4719516 43.6782413,41.0022044 L43.6782413,41.0022044 L43.6782413,38.3360906 C43.6782413,36.8663434 42.4816266,35.6699768 41.0115746,35.6699768 Z M25.0115746,19.6732941 C27.9529807,19.6732941 30.3449079,22.0647254 30.3449079,25.0055217 L30.3449079,25.0055217 L30.3449079,27.6716354 C30.3449079,30.6124317 27.9529807,33.003863 25.0115746,33.003863 C22.0701685,33.003863 19.6782413,30.6124317 19.6782413,27.6716354 L19.6782413,27.6716354 L19.6782413,25.0055217 C19.6782413,22.0647254 22.0701685,19.6732941 25.0115746,19.6732941 Z M25.0115746,22.3394079 C23.5415226,22.3394079 22.3449079,23.5357744 22.3449079,25.0055217 L22.3449079,25.0055217 L22.3449079,27.6716354 C22.3449079,29.1413827 23.5415226,30.3377492 25.0115746,30.3377492 C26.4816266,30.3377492 27.6782413,29.1413827 27.6782413,27.6716354 L27.6782413,27.6716354 L27.6782413,25.0055217 C27.6782413,23.5357744 26.4816266,22.3394079 25.0115746,22.3394079 Z" id="Combined-Shape"></path>
                            </g>
                        </g>
                    </g>
                </g>
            </g>
        </g>
    </g>
</svg>