<?xml version="1.0" encoding="UTF-8"?>
<svg width="48px" height="49px" viewBox="0 0 48 49" version="1.1" xmlns="http://www.w3.org/2000/svg" xmlns:xlink="http://www.w3.org/1999/xlink">
    <!-- Generator: Sketch 62 (91390) - https://sketch.com -->
    <title>BAN/BAN01</title>
    <desc>Created with Sketch.</desc>
    <g id="15.0-Iconos" stroke="none" stroke-width="1" fill="none" fill-rule="evenodd">
        <g id="Functional" transform="translate(-670.000000, -2104.000000)" fill="#444444">
            <g id="Group" transform="translate(89.000000, 94.000000)">
                <g id="FUNC074" transform="translate(544.000000, 1980.000000)">
                    <g id="Shape">
                        <g id="icon" transform="translate(28.400000, 22.000000)">
                            <g id="FUNC/FUNC074" transform="translate(0.400000, 0.400000)">
                                <path d="M37.0260416,7.99739573 C37.7630208,7.99739573 38.3593749,8.59374987 38.3593749,9.33072907 L38.3593749,9.33072907 L38.3593749,13.7630208 C38.3593749,14.0286459 38.5677083,14.2031248 38.7630208,14.2760416 C40.6276043,14.9973957 42.3567709,16 43.9062499,17.2604163 C44.0703125,17.3906245 44.3255208,17.4869787 44.5625,17.3515621 L44.5625,17.3515621 L48.4062499,15.1328123 C48.7083331,14.9531248 49.0729165,14.9088541 49.4192707,14.9973957 C49.7604165,15.0911456 50.0520832,15.3124997 50.2265624,15.6197915 L50.2265624,15.6197915 L55.25,24.3229165 C55.6197917,24.9609373 55.4010416,25.7760416 54.7630208,26.1432291 L54.7630208,26.1432291 L50.9322917,28.3567701 C50.7343752,28.4713536 50.6354168,28.7187493 50.6770835,28.9843744 C50.8385419,29.9765621 50.9218752,30.9739579 50.9218752,31.945312 C50.9218752,32.9166661 50.8385419,33.9140621 50.6770835,34.9062496 C50.6354168,35.1744787 50.7343752,35.4192704 50.9296877,35.5312496 L50.9296877,35.5312496 L54.7630211,37.7473955 C55.4010419,38.1145829 55.619792,38.9296872 55.2500003,39.567708 L55.2500003,39.567708 L50.2265627,48.2708331 C49.8619792,48.9088541 49.0468752,49.125 48.4062501,48.7604165 L48.4062501,48.7604165 L44.559896,46.5416667 C44.3307291,46.4010416 44.0651043,46.5 43.9036459,46.6328125 C42.3515627,47.8958333 40.622396,48.8984376 38.7682293,49.6119792 C38.5703128,49.6875 38.3593752,49.8619792 38.3593752,50.1276043 L38.3593752,50.1276043 L38.3593752,54.559896 C38.3593752,55.2968752 37.7630211,55.8932293 37.0260419,55.8932293 L37.0260419,55.8932293 L26.9739587,55.8932293 C26.2369795,55.8932293 25.6406253,55.2968752 25.6406253,54.559896 L25.6406253,54.559896 L25.6406253,50.1276043 C25.6406253,49.8619792 25.4296877,49.6875 25.2343752,49.6119792 C23.3776043,48.8984373 21.6484376,47.8958333 20.0937501,46.6302083 C19.932292,46.5 19.6718752,46.4062499 19.4427085,46.5390624 L19.4427085,46.5390624 L15.5937501,48.7604165 C14.9531251,49.1223955 14.1380211,48.9062496 13.7734376,48.2708331 L13.7734376,48.2708331 L8.75,39.567708 C8.38020827,38.9296872 8.5989584,38.1145829 9.2369792,37.7473955 L9.2369792,37.7473955 L13.0677083,35.5338539 C13.2656248,35.4192704 13.3645832,35.1744789 13.3229165,34.9088539 C13.1614581,33.9140621 13.0781248,32.9166664 13.0781248,31.9453123 C13.0781248,30.9739581 13.1614581,29.9765624 13.3229165,28.9869789 C13.3645832,28.7187499 13.2656251,28.4713541 13.0677083,28.3567707 L13.0677083,28.3567707 L9.2369792,26.1432291 C8.5989584,25.7760416 8.38020827,24.9609376 8.75,24.3229168 L8.75,24.3229168 L13.7734376,15.6197917 C13.9479168,15.3125 14.2395835,15.0911459 14.5807291,14.9973957 C14.9270832,14.9088541 15.2916667,14.9531251 15.5937499,15.1328125 L15.5937499,15.1328125 L19.4401043,17.3541667 C19.6692709,17.4817709 19.9322917,17.3906251 20.0937499,17.2578125 C21.6432291,16 23.3723957,14.9973957 25.2317709,14.2786459 C25.4322917,14.2031251 25.6406251,14.0286459 25.6406251,13.7630208 L25.6406251,13.7630208 L25.6406251,9.33072907 C25.6406251,8.59374987 26.2369792,7.99739573 26.9739584,7.99739573 L26.9739584,7.99739573 Z M35.6927083,10.6640624 L28.3072917,10.6640624 L28.3072917,13.7630208 C28.3072917,15.0989584 27.4739584,16.2812499 26.184896,16.7708333 C24.5937501,17.3828125 23.1067709,18.2447917 21.7760419,19.3281251 C20.7031251,20.1979168 19.2630211,20.3255211 18.1093752,19.6640624 L18.1093752,19.6640624 L15.4140627,18.1067709 L11.7239584,24.5026043 L14.4010419,26.0494789 C15.5677085,26.7239581 16.1770835,28.0442707 15.9531251,29.4166664 C15.8151043,30.2656248 15.7447917,31.1171872 15.7447917,31.9453123 C15.7447917,32.7734373 15.8151043,33.6249997 15.9531251,34.4791664 C16.1796877,35.8489581 15.5677085,37.1718749 14.3984376,37.8437499 L14.3984376,37.8437499 L11.7239584,39.3880208 L15.4166667,45.7838541 L18.1067709,44.2291667 C19.2552085,43.5625 20.6979168,43.690104 21.7734376,44.5598957 C23.1145835,45.6510416 24.5989584,46.5104165 26.1901043,47.1223957 C27.4765627,47.6145832 28.3072917,48.7942707 28.3072917,50.127604 L28.3072917,50.127604 L28.3072917,53.2265624 L35.6927083,53.2265624 L35.6927083,50.127604 C35.6927083,48.7942707 36.5234376,47.6145832 37.8125,47.1223957 C39.4010416,46.5104168 40.8854168,45.6510416 42.2239584,44.5625 C43.3020835,43.6927085 44.7395832,43.5651043 45.8958333,44.2317709 L45.8958333,44.2317709 L48.5833333,45.7838541 L52.2760416,39.3880211 L49.5989584,37.8411461 C48.4322917,37.1718752 47.8203128,35.8489584 48.0468752,34.4765627 C48.184896,33.625 48.2552085,32.7734376 48.2552085,31.9453125 C48.2552085,31.1171875 48.184896,30.2656251 48.0468752,29.4166667 C47.8229168,28.0442709 48.4322917,26.7239584 49.5989584,26.0494792 L49.5989584,26.0494792 L52.2760416,24.502604 L48.5859373,18.1067707 L45.8932291,19.6614581 C44.7343747,20.3307291 43.2994789,20.1953125 42.2239584,19.3307291 C40.8932291,18.2447915 39.4062499,17.3828125 37.8098957,16.7682291 C36.5260416,16.2812499 35.6927083,15.0989584 35.6927083,13.7630208 L35.6927083,13.7630208 L35.6927083,10.6640624 Z M25.5364584,25.5364584 C28.9895835,22.0833333 35.0104165,22.0833333 38.4635419,25.5364584 C40.1901043,27.2630208 41.1406251,29.5572917 41.1406251,32 C41.1406251,34.4427083 40.190104,36.7369795 38.4635416,38.4635419 C36.7369792,40.1901043 34.4427083,41.1406251 32,41.1406251 C29.5572917,41.1406251 27.2630205,40.190104 25.5364581,38.4635416 C23.8098957,36.7369792 22.8593749,34.4427083 22.8593749,32 C22.8593749,29.5572917 23.8098957,27.2630208 25.5364584,25.5364584 Z M32,25.5286459 C30.3411459,25.5286459 28.6848957,26.1588541 27.4218749,27.4218749 C24.8984373,29.9453125 24.8984373,34.0546875 27.4218749,36.5781251 C29.9479168,39.1041667 34.0520835,39.1041667 36.5781251,36.5781251 C39.1015624,34.0546875 39.1015624,29.9453125 36.5781251,27.4218749 C35.3151043,26.1588541 33.6588541,25.5286459 32,25.5286459 Z" id="Combined-Shape"></path>
                            </g>
                        </g>
                    </g>
                </g>
            </g>
        </g>
    </g>
</svg>