<?xml version="1.0" encoding="UTF-8"?>
<svg width="49px" height="46px" viewBox="0 0 49 46" version="1.1" xmlns="http://www.w3.org/2000/svg" xmlns:xlink="http://www.w3.org/1999/xlink">
    <!-- Generator: Sketch 62 (91390) - https://sketch.com -->
    <title>BAN/BAN01</title>
    <desc>Created with Sketch.</desc>
    <g id="15.0-Iconos" stroke="none" stroke-width="1" fill="none" fill-rule="evenodd">
        <g id="Channels" transform="translate(-242.000000, -173.000000)" fill="#444444">
            <g id="Group" transform="translate(40.000000, 72.000000)">
                <g id="CHAN002" transform="translate(166.000000, 69.600000)">
                    <g id="Shape">
                        <g id="icon" transform="translate(28.400000, 22.000000)">
                            <g id="CHAN/CHAN02" transform="translate(0.400000, 0.400000)">
                                <path d="M28,9.33333333 C33.6336264,9.33333333 38.9804688,11.7179363 42.743164,15.8689779 C50.6770832,18.6967773 56,26.1905925 56,34.6666667 C56,45.6953125 47.0286459,54.6666667 36,54.6666667 C30.3657227,54.6666667 25.0182291,52.2815755 21.2556965,48.12972 C13.319336,45.2968749 8,37.8063152 8,29.3333333 C8,18.3046875 16.9713541,9.33333333 28,9.33333333 Z M36,17.3333333 C26.4427083,17.3333333 18.6666667,25.1093749 18.6666667,34.6666667 C18.6666667,38.8906251 20.2135416,42.9609376 23.0234376,46.1289061 C26.2942709,49.8619792 31.0221355,52 36,52 C45.5572917,52 53.3333333,44.2239584 53.3333333,34.6666667 C53.3333333,27.2135416 48.5976563,20.6171875 41.5494792,18.2513021 C39.7721355,17.6406251 37.907552,17.3333333 36,17.3333333 Z M36,20 C36.7369792,20 37.3333333,20.5963541 37.3333333,21.3333333 L37.3333333,21.3333333 L37.3333333,23.8186848 C40.1796875,24.2693685 42.4446613,25.6036784 42.5572917,25.6718749 C43.1861979,26.0520832 43.3880208,26.8697915 43.0078125,27.5 C42.6276043,28.1302085 41.8059896,28.3307293 41.1796875,27.9544272 C41.1523437,27.9388021 38.4322915,26.3268229 35.5598957,26.3268229 C33.3346355,26.3268229 31.0820312,27.3359376 31.0820312,29.2630208 C31.0820312,31.4127605 33.4153645,32.4960939 36.9752603,33.9036459 C40.3085936,35.2226563 44.0885416,36.717448 44.0885416,40.4114584 C44.0885416,43.7636717 41.5815429,45.8771157 37.3333333,46.2579752 L37.3333333,46.2579752 L37.3333333,48.6796875 C37.3333333,49.4166667 36.7369792,50.0130208 36,50.0130208 C35.2630208,50.0130208 34.6666667,49.4166667 34.6666667,48.6796875 L34.6666667,48.6796875 L34.6666667,46.2649739 C30.7316351,45.9352484 28.7560749,44.1826306 28.4737128,43.9119928 L28.4414064,43.8802083 C27.9309896,43.3515627 27.9453125,42.5065104 28.4752605,41.9947917 C29.0039061,41.4830731 29.8502605,41.5013021 30.3606771,42.0286459 C30.4166667,42.0833336 32.0820312,43.6705731 35.9270832,43.6705731 C37.9791667,43.6705731 41.4218749,43.247396 41.4218749,40.4114584 C41.4218749,38.6614584 39.2734376,37.6796875 35.9934896,36.3841147 C32.4414061,34.9791667 28.4153645,33.3867187 28.4153645,29.2630208 C28.4153645,26.2592773 31.0026043,24.0424805 34.6666667,23.7244467 L34.6666667,23.7244467 L34.6666667,21.3333333 C34.6666667,20.5963541 35.2630208,20 36,20 Z M28,12 C18.4427083,12 10.6666667,19.7760416 10.6666667,29.3333333 C10.6666667,35.1210939 13.5221355,40.3932291 18.1002605,43.5677083 L18.1002605,43.5677083 L18.0685221,43.4938149 C17.7583008,42.8666989 17.4840493,42.2241208 17.2418619,41.5688475 C17.18278,41.4091795 17.1373696,41.2456053 17.0825195,41.0846352 C16.9111328,40.5820309 16.757324,40.0743811 16.6266275,39.5589189 C16.569824,39.3352861 16.5196939,39.111328 16.4707029,38.8855792 C16.3649088,38.3979491 16.2794595,37.9064125 16.2104491,37.4104816 C16.1811523,37.1993813 16.145996,36.9903971 16.1233723,36.7779947 C16.048828,36.0791016 16,35.3758139 16,34.6666667 C16,23.6380208 24.9713541,14.6666667 36,14.6666667 C36.4335939,14.6666667 36.8645835,14.6809896 37.2942709,14.7083333 C34.5494792,12.9570312 31.3307291,12 28,12 Z" id="Combined-Shape"></path>
                            </g>
                        </g>
                    </g>
                </g>
            </g>
        </g>
    </g>
</svg>